<?xml version="1.0" encoding="UTF-8" standalone="no"?>
<!-- Created with the Eggbot TSP art toolkit (http://egg-bot.com) -->

<svg xmlns="http://www.w3.org/2000/svg"
     xmlns:inkscape="http://www.inkscape.org/namespaces/inkscape"
     xmlns:sodipodi="http://sodipodi.sourceforge.net/DTD/sodipodi-0.dtd"
     xmlns:rdf="http://www.w3.org/1999/02/22-rdf-syntax-ns#"
     xmlns:dc="http://purl.org/dc/elements/1.1/"
     xmlns:cc="http://creativecommons.org/ns#"
     height="479"
     width="640">
  <sodipodi:namedview
            showgrid="false"
            showborder="true"
            inkscape:showpageshadow="false"/>
  <metadata>
    <rdf:RDF>
      <cc:Work rdf:about="">
        <dc:format>image/svg+xml</dc:format>
        <dc:type rdf:resource="http://purl.org/dc/dcmitype/StillImage" />
        <dc:subject>
          <rdf:Bag>
            <rdf:li>Egg-Bot</rdf:li>
            <rdf:li>Eggbot</rdf:li>
            <rdf:li>TSP</rdf:li>
            <rdf:li>TSP art</rdf:li>
          </rdf:Bag>
        </dc:subject>
        <dc:description>TSP art created with the Eggbot TSP art toolkit (http://egg-bot.com)</dc:description>
      </cc:Work>
    </rdf:RDF>
  </metadata>
>
    <path style="fill:none;stroke:#000000;stroke-width:1"
          d="m 360,30 2,0 2,0 2,0 2,0 1,1 -2,1 0,1 1,1 1,-1 1,2 1,1 -1,1 1,1 -1,1 -1,2 -1,-1 -1,-1 1,-1 -1,-1 1,-1 -1,-1 -2,-1 0,-2 -2,1 0,1 1,1 0,1 1,1 -1,1 1,1 0,1 1,1 0,1 2,0 1,1 1,1 1,1 1,1 -1,1 0,1 1,1 0,1 1,1 1,1 -1,1 1,1 1,1 0,1 1,1 1,1 1,1 1,-2 -1,-1 0,-1 -1,-1 -1,-1 1,-1 -1,-1 -1,-1 0,-1 -1,-1 0,-1 1,-1 -1,-1 -1,-1 -1,-1 -1,-1 0,-1 1,-2 1,1 1,1 0,1 1,1 1,1 1,1 1,-2 -1,-1 0,-1 -1,-1 -1,-1 -1,-1 0,-1 -1,-1 -1,-2 -1,-1 1,-1 -1,-1 3,0 2,0 1,1 2,-1 0,2 1,2 -2,0 -1,-1 -1,-1 -2,0 0,1 1,1 1,1 1,1 0,1 1,1 1,-2 1,2 -1,2 1,2 1,2 -1,3 0,-1 -1,-2 -1,1 -1,1 0,1 1,1 0,1 2,0 0,1 0,1 -1,1 1,1 1,1 0,2 -1,2 0,1 -2,2 2,2 -2,2 1,2 1,2 0,3 -3,-1 0,-2 -1,-3 0,-2 0,-2 -1,-2 0,-2 -2,-1 0,-1 -1,-1 0,-1 -1,-1 -1,-1 1,-1 -1,-1 -1,-1 0,-1 -1,-1 0,-1 1,-1 -1,-1 -1,-1 -1,2 -1,1 0,1 1,1 0,1 1,1 1,1 -1,1 1,1 1,1 0,1 1,1 1,2 1,2 -2,0 -2,-1 1,-1 -2,-1 0,-1 -1,-1 0,-1 -1,-1 -1,-1 1,-1 -1,-1 -1,-1 0,-1 -1,-1 0,-1 2,-1 0,-1 1,-1 -1,-1 -1,-1 0,-1 -1,-1 -1,0 -1,1 0,1 1,1 1,1 -1,1 0,1 -2,-1 -1,-1 0,-1 -1,-1 0,-1 1,-1 -1,-1 -1,-2 0,1 -1,2 -1,1 0,1 1,1 0,1 1,1 1,1 -1,1 1,1 2,-1 0,1 1,1 0,1 1,1 1,1 -1,1 1,1 1,1 0,1 1,1 0,1 1,1 1,1 0,2 -1,2 -1,2 0,2 -3,0 0,-2 -2,-1 -2,-1 -1,-1 -1,3 1,2 2,0 1,2 2,1 2,-1 1,2 2,0 2,-2 -1,-1 0,-2 0,-2 1,-2 1,2 2,-1 2,0 -1,2 -2,1 1,2 2,-1 1,2 -1,2 2,1 1,2 0,2 3,-1 0,2 0,2 1,2 -2,2 2,1 -1,3 0,2 0,2 2,3 -3,0 -1,-2 -1,-2 0,-3 0,-2 -2,-2 2,-2 0,-2 -2,-1 -2,-1 1,-2 -3,0 1,-2 -1,-2 -2,1 -1,2 1,2 1,2 1,1 2,1 0,2 0,2 1,2 0,2 0,2 0,2 1,2 -1,2 2,0 0,1 -1,1 1,1 -1,1 0,1 0,2 0,1 1,1 1,1 0,1 2,0 0,-2 0,-1 -1,-1 -1,-2 1,1 2,1 0,-2 -1,-1 -1,-1 0,-2 2,0 1,1 0,1 1,2 0,2 -1,2 0,1 1,1 -2,1 1,1 1,1 0,2 -2,-1 -1,-1 -1,-1 -1,2 1,1 0,1 -3,3 1,-1 -1,-1 0,-1 0,-2 0,-1 1,-1 -1,-1 -1,-1 0,-1 -1,-1 0,-2 0,-1 -1,-1 1,-1 0,-2 -1,-1 0,-2 0,-1 -1,-1 -2,0 -2,0 0,-1 0,-1 1,-2 1,2 2,0 0,-2 0,-2 -1,-1 -2,-1 -1,-1 3,-1 0,-2 -2,0 -2,1 0,-2 1,-2 -1,-2 -1,-2 -2,-1 -1,-1 -3,1 -1,-1 -1,-2 -2,-1 -1,-2 -1,-2 0,-2 -3,0 0,2 1,2 1,2 1,2 2,1 0,2 1,1 2,1 1,1 2,1 0,-3 2,1 1,2 -1,2 0,2 -2,0 -1,-1 0,-1 -2,-1 -1,-1 -1,2 -1,-1 -1,-1 1,-1 -1,-1 -2,-1 -1,-2 -1,-2 -2,-1 0,-2 0,-2 -2,-1 -1,-1 -2,2 1,2 1,1 0,2 3,1 0,2 0,2 2,0 0,1 1,1 1,-1 0,2 1,1 1,1 -1,1 -2,-1 -1,1 1,1 -1,1 1,1 -1,1 1,1 -1,1 0,1 -1,1 0,1 -1,1 0,2 1,-1 2,-1 0,1 1,1 1,1 1,1 1,1 -1,1 1,1 1,1 0,1 -1,1 1,1 1,1 1,1 1,1 1,1 1,1 0,1 -1,1 0,1 1,1 0,1 -1,1 1,1 0,2 -1,2 2,2 0,2 0,2 -1,2 2,1 -1,2 0,2 0,2 2,1 0,2 2,1 1,1 2,1 1,2 0,2 2,1 2,1 0,2 2,1 2,1 1,1 2,1 0,-3 0,-3 -3,1 -1,-2 1,-2 -3,0 -1,-1 1,-3 -2,1 -1,-2 -3,-1 -2,-2 0,-2 -1,-2 -1,-1 1,-3 -1,-1 0,-2 0,-2 0,-2 -2,-1 0,-1 1,-1 -1,-1 1,-1 -1,-1 1,-1 0,-1 -1,-1 0,-1 1,-1 0,-1 -1,-1 -1,-1 -1,-1 -1,-1 -1,-1 -1,-1 1,-1 0,-1 -1,-1 -1,-1 0,-2 -1,-1 -1,-1 -1,-1 0,-1 -1,-1 -1,-1 0,-1 2,0 1,1 2,0 1,-1 0,-1 -1,-1 -1,1 -1,-1 0,-1 -2,1 0,-1 0,-2 1,-1 1,1 2,1 0,-1 -1,-2 1,-1 1,1 1,1 1,1 -1,1 1,1 0,1 0,2 -1,2 -1,1 -1,-1 -1,2 2,1 1,-1 1,1 -1,2 0,1 1,1 1,-2 1,-1 0,-1 -1,-2 0,-1 2,-1 -1,-1 1,-1 -1,-1 1,-1 -1,-1 0,-1 2,0 1,2 1,1 -1,1 1,1 -1,1 0,1 -2,1 1,1 1,1 0,1 -2,1 1,1 1,1 -1,2 -1,-1 -1,-1 -1,2 1,1 -1,1 1,1 1,1 1,1 1,1 1,1 1,1 0,1 -1,1 0,1 1,1 0,1 -1,1 1,1 -1,1 1,1 -1,1 1,1 0,2 2,1 1,-1 -1,-1 1,-1 -1,-1 1,-1 -1,-1 1,-1 -1,-1 1,-1 0,-1 -1,-1 0,-1 1,-1 -1,-1 -1,-2 -1,-1 -1,-1 -1,-1 -1,-1 1,-1 1,-1 1,1 1,-1 -1,-2 -1,-2 1,-1 1,1 1,-1 1,1 0,1 -1,1 2,1 -1,1 0,1 -2,1 0,1 1,1 1,-1 1,1 0,1 -1,1 1,1 1,1 1,1 -1,1 0,1 1,1 0,1 -1,1 1,1 -1,1 1,1 -1,1 1,1 -1,1 1,1 -1,1 0,1 -1,1 -2,-1 -1,2 2,1 -1,2 0,2 1,2 1,2 1,1 2,1 1,-3 -1,-1 0,-2 -2,0 0,-2 0,-2 2,1 0,-2 0,-1 1,-1 0,-1 1,-1 -1,-1 0,-2 1,-1 1,1 0,1 1,1 0,2 0,1 -1,1 0,1 -1,1 1,1 -2,1 1,1 1,1 0,1 0,2 1,1 2,0 1,-1 -2,-1 1,-1 0,-1 -1,-1 0,-1 1,-1 -1,-1 1,-1 0,-1 2,-1 -1,-1 -1,-1 0,-1 1,-1 -1,-1 -1,-1 0,-1 -1,-1 2,-1 0,-1 2,1 -1,2 1,1 1,2 0,1 0,1 1,2 -1,1 0,1 -1,1 2,1 0,2 -2,-1 0,1 0,2 2,0 -1,1 1,1 -1,1 0,1 1,1 0,2 1,2 -1,2 -1,-2 -1,-1 0,-1 -1,-1 0,-1 -2,0 -2,0 1,2 0,2 2,1 2,1 -1,2 3,0 0,1 0,2 0,2 0,2 0,2 -2,1 2,2 -1,3 0,2 0,3 1,1 -3,-3 -1,-3 0,-2 -1,-2 -2,-1 0,2 -1,3 2,2 -2,2 2,1 1,1 2,2 2,1 1,1 0,2 0,3 1,2 0,3 2,1 0,3 -1,2 -2,1 -2,0 -2,0 -2,-1 -1,-1 -1,-3 -1,-2 -3,0 0,2 2,1 0,2 -1,2 1,1 -2,2 -1,2 2,1 1,-2 2,0 2,0 4,1 -2,0 -1,1 -2,0 -2,0 -1,2 -2,1 1,1 1,2 1,-2 1,-1 2,0 -1,2 -1,1 1,1 -2,1 1,1 1,1 1,-1 2,0 2,1 3,0 3,-3 2,1 1,-1 0,-1 -1,-1 0,-1 2,0 1,2 -1,2 0,1 -2,1 -2,0 -5,2 1,1 0,2 -2,0 -1,1 -1,-1 1,-1 -1,-2 -2,-1 -1,1 1,1 1,1 -1,2 1,1 -1,1 0,1 1,1 1,-1 1,2 -2,2 1,1 2,1 -2,1 1,2 1,-1 2,0 0,2 2,0 1,-2 -1,-2 4,-1 2,-1 0,-2 2,0 0,1 0,1 0,1 1,1 -2,1 -1,-1 -2,1 -1,2 -1,3 -2,0 0,2 2,1 -1,2 2,1 0,3 -2,-1 -2,-1 -1,3 -2,1 2,1 -1,2 2,0 2,0 0,-2 2,1 0,2 2,0 0,-2 3,0 0,1 2,1 -1,2 1,1 -1,1 1,1 2,0 1,1 1,-1 0,-2 -2,0 0,-2 2,0 0,-2 -2,0 -1,-1 2,-1 2,0 1,2 0,2 0,2 1,1 1,2 1,1 1,-2 -1,-1 0,-2 -1,-1 0,-2 -1,-2 2,0 2,0 -1,2 1,1 0,2 1,1 2,0 1,1 2,-1 -1,-2 -2,0 -1,-1 0,-2 2,1 2,0 2,0 -1,2 1,2 1,-2 1,2 3,2 3,1 1,2 3,-1 4,0 2,1 3,0 0,2 -4,1 -3,-1 -2,-1 -2,2 -3,2 0,-2 -1,-1 0,-2 -3,0 -1,-2 -2,-1 -2,0 1,2 1,1 0,1 2,1 1,1 1,2 -2,0 -2,0 0,-1 -1,-1 -1,-1 -1,-1 -1,-1 1,-1 -1,-1 -2,0 -1,-1 -1,2 0,1 2,0 1,2 0,1 1,1 1,1 -4,0 0,-1 0,-2 -2,1 0,-1 -1,-1 -1,3 -1,-1 0,-2 0,-1 -1,-2 -1,1 -1,1 0,1 1,1 0,1 0,2 -2,-1 -1,-1 -1,-1 -1,-1 2,-1 -1,-1 -2,0 -1,-1 -2,-1 0,-1 1,-1 0,-2 -2,1 -1,2 -1,-2 -2,0 -1,-1 -2,0 -1,2 -1,1 -1,-1 1,-2 -2,0 0,-2 -3,1 -1,-2 -1,-2 -2,-3 1,-3 2,1 0,2 2,1 1,2 2,-2 -1,-2 -1,-2 0,-2 2,1 2,2 1,-2 -1,-2 0,-2 -2,1 0,-2 -2,1 -1,-1 1,-1 0,-1 -1,-1 -1,-1 1,-1 -1,-1 -1,-1 2,-1 -1,-1 -1,-2 -1,-1 1,-1 0,-1 1,-1 -1,-1 -1,-1 -1,-1 1,-1 -1,-1 -1,-1 0,-1 -1,-1 0,-1 -1,-1 -1,-2 -1,-2 -1,-2 1,-2 -1,-2 2,0 1,-2 -1,-2 -1,-2 0,-3 3,-1 -1,-1 -1,-2 -2,-1 1,-2 -1,-2 -2,1 -1,-2 1,-1 1,-2 2,0 1,2 2,2 0,2 1,2 2,1 1,2 2,-1 0,3 1,2 1,2 1,2 2,0 2,-1 0,-1 -2,-1 -1,-3 -1,-2 0,-3 -1,-2 -2,1 -3,-1 3,-2 -1,-1 -2,-1 -2,-1 0,-2 -1,-2 2,-1 -2,-2 -2,0 -2,-1 0,1 -1,1 1,1 2,0 -1,2 -2,0 -1,-1 -1,-1 -2,-1 0,1 1,2 1,1 0,1 -1,1 -1,2 -1,-1 -1,-1 1,-1 -1,-1 1,-1 -1,-1 -1,-1 0,-1 1,-1 -1,-1 -1,-1 0,-1 -2,0 -1,-1 -1,-1 1,-1 -1,-1 -1,-1 -1,-1 -1,-1 0,-1 1,-1 0,-1 2,0 1,1 -1,1 0,1 1,1 1,1 1,1 1,1 -1,1 2,0 1,1 1,1 0,1 1,1 2,1 0,-1 1,-1 -1,-1 -1,-1 -1,-1 -1,-1 -1,-1 -1,-1 -1,-1 -1,-1 0,-1 1,-1 -1,-1 -1,-1 -1,-1 1,-1 0,-1 1,-1 -2,-1 1,-1 -1,-1 1,-1 0,-1 2,1 1,1 -1,1 1,1 0,2 0,1 -1,1 1,1 1,1 1,1 -1,1 0,1 1,1 1,1 2,0 -1,1 1,1 1,1 1,1 1,1 1,1 1,-2 2,1 2,1 0,-3 1,-2 -2,-1 -2,-2 -1,-2 -1,-1 -1,-1 0,-2 -1,-1 -1,-1 -1,-1 0,3 1,1 0,1 1,2 1,1 1,1 1,2 0,1 1,1 -1,1 -2,-1 -1,-1 1,-1 -1,-1 -1,-1 -2,0 0,-1 1,-1 -1,-1 -1,-1 -1,-1 1,-1 0,-1 -1,-1 0,-1 1,-1 -1,-1 -1,-2 -2,-1 0,-1 -2,-1 -1,-1 0,2 -2,-1 0,2 1,1 -1,1 -1,1 1,1 -1,1 1,1 1,1 -1,2 -1,-1 -1,-1 0,2 -1,2 -1,-1 -1,1 0,-2 1,-1 -1,-1 1,-1 0,-1 1,-1 1,-2 0,-2 0,-1 0,-1 -1,-1 -1,1 -1,1 0,1 1,1 0,1 -1,1 -1,2 -1,-1 -1,-1 1,-1 0,-1 -1,-1 0,-1 1,-1 -1,-1 -1,-1 -1,-1 -1,-1 1,-1 -2,-1 -1,1 0,1 1,2 1,1 1,1 -1,1 0,1 1,1 0,1 -1,1 1,1 1,1 1,1 1,1 -1,1 1,1 -1,1 1,1 0,1 1,1 1,1 1,-1 0,2 1,1 1,1 1,1 -1,1 1,1 1,1 0,1 -1,1 -2,1 1,1 0,2 0,1 1,1 1,1 -1,1 1,1 -1,1 -2,-1 -1,1 1,1 0,2 1,1 1,1 1,-2 -1,-1 1,-1 2,-1 1,-1 -1,-1 1,-1 -1,-1 -1,-1 0,-1 -1,-1 0,-1 1,-1 1,-2 1,1 1,1 -1,1 0,1 1,1 0,1 1,1 0,2 0,1 1,1 1,1 2,1 -1,2 -2,-1 -1,-1 -1,-1 -2,1 0,1 1,1 2,1 0,2 0,2 -2,-1 0,-2 -2,-1 -1,2 0,2 -1,2 0,2 1,2 -1,2 -1,2 -1,-2 0,-2 -2,1 -1,2 1,1 0,2 0,2 1,2 -1,2 2,1 1,-2 1,2 1,1 2,0 -1,2 1,1 1,1 2,0 -1,2 1,1 0,1 -1,1 1,1 1,-1 1,-2 1,2 0,1 1,1 0,2 -1,-1 -2,-1 0,1 1,2 -1,1 -1,-1 -1,-1 -1,-1 0,-1 -1,-1 0,-1 0,-1 0,-1 -1,-2 -1,2 0,1 -1,1 0,1 1,1 0,1 1,1 0,1 -1,1 0,1 1,1 0,1 1,1 1,-1 -1,-2 1,-1 1,1 1,1 0,1 1,1 -1,1 -2,0 1,1 1,1 1,2 0,1 0,2 -1,1 1,1 0,1 -1,2 1,2 -1,2 2,1 1,3 -3,0 -1,2 2,1 2,-1 1,2 -1,2 -2,0 1,2 2,1 -2,1 -1,1 0,1 -1,1 1,1 -1,1 0,1 1,1 -3,0 1,1 1,1 1,1 1,1 1,1 -1,1 0,1 0,2 0,1 2,0 1,-1 0,-1 -1,-1 1,-2 1,1 1,1 0,2 -1,2 2,1 2,1 1,-2 -2,-1 0,-2 1,-1 -1,-1 -1,-1 -1,-1 -1,-1 -2,0 0,-1 -1,-1 0,-1 1,-1 -1,-1 1,-1 -1,-1 1,-1 0,-1 2,1 0,1 0,2 0,2 0,1 1,-2 1,-1 2,0 0,-2 -2,0 1,-2 -2,-1 -1,-1 -1,-2 1,-2 0,-3 2,1 1,2 -1,2 2,0 0,2 2,-1 0,-2 0,-2 -2,-2 -1,-2 -2,-1 0,-3 -2,1 -1,-3 -1,-2 0,-1 1,-1 0,-1 -1,-1 0,-1 1,-1 -1,-1 1,-1 -1,-1 -1,-1 0,-1 1,-2 -1,-1 0,-2 2,-1 0,1 0,1 2,0 1,-1 0,-1 -1,-1 1,-1 -1,-1 0,-1 0,-1 -1,-1 -1,-1 0,-1 2,-1 1,1 0,1 1,1 1,1 1,-1 0,-1 -1,-1 1,-1 -1,-1 -1,-1 0,-1 -2,-1 1,-2 -1,-1 -2,0 -1,2 1,1 1,2 -1,1 -2,0 0,-2 -2,-1 -1,-1 2,-1 0,-1 -2,-1 -2,0 -1,-2 0,-1 -2,0 -2,-1 1,-2 2,1 1,-2 0,-2 2,0 -1,-2 1,-1 -1,-2 0,-2 2,0 1,2 1,2 -1,2 1,2 2,0 0,-2 1,-2 0,-2 -1,-1 -1,-2 2,0 -1,-2 0,-2 3,-1 0,2 2,1 -1,2 0,2 0,2 1,1 1,2 -3,0 0,2 -1,1 2,1 -1,2 -2,-1 -1,2 -2,-1 0,-2 -2,-1 -1,2 1,2 1,1 2,1 2,0 2,-1 2,0 0,2 2,2 -1,1 1,1 1,1 0,1 1,1 1,1 -1,1 1,1 -1,1 0,1 1,1 1,-2 1,1 0,1 -1,1 -1,1 1,1 1,1 1,1 -1,1 0,1 1,2 -1,1 0,2 1,-1 1,1 0,1 -1,1 0,1 2,1 -1,2 -2,-1 -2,1 -1,2 -2,-1 1,-2 2,-1 -1,-1 2,-1 -1,-1 0,-1 -1,-1 1,-1 1,-1 -1,-1 -1,-1 0,-1 1,-1 -1,-1 -1,-2 0,-1 -1,-1 -2,0 1,2 0,1 1,1 0,1 -1,1 0,1 1,1 1,1 -1,1 0,1 1,2 -1,2 -1,1 0,1 -1,-2 0,-1 1,-1 -1,-1 -1,-1 1,-1 -1,-1 1,-1 -2,-1 -1,1 0,1 -1,1 1,1 1,2 0,1 0,2 0,1 1,1 1,1 -2,1 1,1 2,1 2,1 -1,3 3,0 0,2 1,2 1,2 0,2 0,2 1,1 1,2 2,1 1,-2 -1,-1 0,-2 -1,-2 2,0 1,2 1,1 0,2 0,1 -1,2 1,1 -1,2 -1,2 -1,-3 -1,-1 -2,-1 -1,-2 -2,0 -1,1 1,2 1,1 2,1 1,2 0,2 1,1 -1,2 1,2 1,2 1,2 2,-2 -1,-2 -1,-2 1,-2 1,-2 1,-2 1,-2 1,-2 -1,-1 1,-1 0,-1 -1,-1 0,-1 1,-1 1,-2 1,1 2,0 0,1 2,1 1,1 1,1 0,1 2,0 -1,1 0,1 2,0 1,1 0,1 -1,1 -2,-1 -2,0 1,1 1,1 -1,1 1,1 0,2 0,2 0,2 -2,-2 -1,2 0,2 -2,1 0,2 1,3 -3,0 -1,-2 0,-2 1,-2 1,-2 0,-2 -1,-1 2,-1 2,1 1,-1 -1,-1 -1,-1 0,-1 1,-1 -2,-1 1,-1 0,-1 1,-1 0,-1 -1,-1 0,-1 -1,-1 -2,-1 0,1 0,2 1,1 0,1 -2,1 1,1 -1,1 1,1 1,1 -1,2 -2,-1 -1,2 -1,2 2,1 -1,3 -1,2 0,2 -3,1 1,2 2,0 -1,2 2,0 2,-1 2,1 1,1 2,1 2,-2 2,1 4,-1 1,-2 2,0 0,-2 1,1 1,2 -1,2 -1,-2 -1,1 0,1 0,2 -2,-1 -4,2 -2,-1 -2,1 0,2 2,1 -3,1 1,1 -1,1 0,1 2,0 1,1 0,2 -2,-1 -1,2 -2,0 0,-1 1,-1 -1,-1 0,-2 -1,-2 1,-1 0,-2 -1,-2 -3,-1 0,2 1,1 0,2 0,2 1,1 0,1 -1,1 1,1 -1,1 -2,-1 -1,-1 1,-1 0,-2 -1,1 -1,-1 1,-2 -1,-2 0,-2 -1,-1 -1,-2 -1,-2 0,-3 -1,-2 -1,-2 -1,-2 -1,-2 -1,-1 1,-2 0,-2 -2,-1 -1,2 -2,-1 0,1 -1,1 1,1 2,0 -1,2 2,1 0,2 1,1 1,2 -1,2 2,1 0,2 1,2 1,2 -1,2 2,1 1,2 0,2 1,2 0,2 1,1 1,1 1,1 0,1 1,1 1,-3 1,1 1,1 -1,1 0,1 -1,1 0,1 1,1 0,1 2,0 0,1 0,2 0,2 -1,-1 -1,-1 0,-1 -2,0 0,-1 -1,-1 0,-1 -1,-1 1,-1 -1,-1 -1,-1 -1,-1 0,-1 -1,-1 -1,-2 0,-1 0,-1 -1,-2 -1,1 0,1 -2,1 1,1 1,1 1,1 -1,1 1,1 1,1 1,1 1,1 0,1 0,2 1,1 0,1 1,1 0,1 -1,1 0,1 2,1 0,-1 1,-2 1,1 1,1 -1,1 0,1 1,2 1,1 1,1 0,2 -2,-1 0,3 1,2 -3,0 -1,-2 -1,-1 -1,3 0,2 2,1 -1,2 1,2 2,-1 1,-3 2,0 0,2 1,2 1,1 3,0 -2,2 2,1 1,1 3,0 -1,-3 0,-2 3,-1 -3,-1 -2,-1 -2,1 -1,-2 0,-3 -1,-1 0,-2 1,-2 0,-2 -2,-1 -1,-1 -1,-1 1,-1 2,1 0,-1 1,-1 -1,-1 1,-1 -1,-1 1,-1 -1,-1 1,-1 0,-1 -1,-1 -2,0 0,-1 1,-1 0,-1 0,-1 2,0 2,0 0,2 -2,0 1,1 1,1 1,1 0,1 -1,1 1,1 -1,1 1,1 -1,1 1,1 -1,1 0,1 -1,1 1,2 1,2 -1,2 1,2 0,2 2,1 1,-3 1,-2 -2,-1 1,-2 -1,-1 -1,-2 2,0 -1,-2 1,-1 -1,-1 1,-1 -1,-1 1,-1 0,-1 -1,-1 0,-2 0,-1 -1,-1 1,-2 2,1 1,1 3,-1 1,-1 -1,-1 1,-2 2,-1 1,1 -2,1 1,1 0,1 -1,2 -6,2 1,1 0,1 1,1 -1,2 1,1 -1,1 1,1 -1,2 2,0 -1,2 2,1 -3,1 2,2 0,2 1,2 -3,0 0,2 2,1 1,1 1,2 1,3 -3,-1 -2,1 1,2 1,2 2,-1 1,2 0,2 1,2 0,2 1,2 -2,2 -2,-2 -1,-1 0,-2 -2,-1 2,-2 -3,0 -1,-1 -2,-1 -2,1 -1,3 1,2 2,-2 2,2 1,2 1,2 2,1 1,2 1,2 -2,0 1,2 0,1 -2,1 1,1 -1,1 -2,0 -2,0 -2,-1 -2,-2 -1,2 1,2 0,2 1,1 1,-2 2,0 -1,2 -1,1 1,1 0,2 1,1 2,0 1,1 1,1 1,-2 -1,-1 -1,-1 -2,0 0,-1 0,-2 1,-1 0,-1 2,0 1,1 -1,1 0,1 1,1 1,1 1,2 1,1 1,-2 -1,-1 -1,-2 0,-1 0,-2 -1,-1 1,-2 1,1 1,-1 -1,-2 1,-2 0,-1 0,-2 1,-1 1,-2 2,1 -1,2 0,1 1,1 1,2 -2,0 -1,-1 -1,2 1,1 2,0 1,1 -1,1 2,1 -1,1 1,1 1,2 0,2 1,2 0,2 1,2 -1,2 -2,-1 1,-1 -1,-1 0,-1 -2,0 0,-1 2,-1 -2,-1 1,-1 0,-2 -1,-1 -1,-2 -1,-2 -1,1 -1,1 1,1 1,1 -2,1 1,1 2,0 -1,2 0,1 -1,1 0,1 1,1 1,1 1,1 0,2 0,1 2,-1 1,1 -1,1 -1,2 -1,-1 -2,1 1,1 -1,1 0,1 1,1 -2,1 1,1 -2,1 1,1 0,1 -1,1 1,1 -1,1 0,1 0,2 2,1 0,-2 1,-2 1,-1 0,-1 -1,-1 2,-1 -1,-1 0,-1 1,-2 1,1 1,1 0,2 1,1 -2,1 1,1 -1,1 0,1 2,1 1,-2 1,-1 -1,-1 1,-1 0,-2 -1,-1 -1,-2 -2,-1 -1,-1 2,-1 0,-1 1,-1 1,-2 1,1 0,2 0,1 -1,1 2,1 -1,1 1,1 1,2 1,1 -1,2 1,1 -1,1 1,1 1,1 1,2 -5,-2 1,1 1,1 1,2 1,2 1,3 0,3 -2,-1 -1,-2 -1,-2 -2,-2 0,-2 -1,-1 -2,-1 -2,-1 0,2 1,1 1,2 0,2 2,1 0,2 1,1 1,2 -2,1 1,2 0,2 2,0 0,2 1,1 -1,3 1,1 3,1 0,-2 0,-2 0,-2 -1,-2 -2,-3 3,-1 1,1 1,2 1,3 1,2 0,3 -2,2 2,1 1,1 2,3 -3,0 0,2 1,2 3,0 -1,3 1,2 1,2 -3,0 0,2 -2,1 -2,0 1,-2 -1,-2 2,-1 0,-2 -2,0 -2,1 0,-2 1,-3 -1,-2 2,-2 -3,0 0,-2 -2,-1 -1,3 -2,-1 0,-3 -2,-2 2,-2 -2,-1 -1,-2 0,-2 -1,-2 0,-2 -2,-1 2,-2 -2,-1 -2,-1 -1,-2 3,0 -1,-2 -2,-1 -2,-1 -3,0 1,2 1,2 0,2 2,2 1,2 1,2 1,2 0,2 1,2 1,2 0,2 0,2 2,1 0,2 0,2 1,2 2,-1 2,1 1,1 1,2 -2,1 1,2 1,2 0,2 2,1 -1,1 0,1 -1,1 1,1 2,-1 0,2 0,1 2,1 1,-1 0,-1 -1,-1 0,-1 2,0 1,1 2,0 0,-2 0,-1 3,0 -1,2 1,1 -1,1 -2,1 1,1 1,2 1,-2 1,-1 1,2 -1,1 1,1 1,2 0,2 1,2 -2,0 -1,-2 0,-2 -2,-1 0,1 -1,1 1,1 1,2 1,1 1,1 2,0 1,1 -1,2 1,1 0,2 -2,0 -1,-1 -2,-1 2,-1 0,-1 -2,0 -1,-1 -1,-1 0,-1 0,-1 -2,0 0,-1 0,-2 0,-2 1,-1 0,-1 -1,-1 -1,-2 -1,2 -1,1 1,1 -1,1 0,1 1,1 0,1 -2,1 1,1 1,1 1,1 -1,1 1,1 2,0 1,1 0,2 -2,-1 -2,0 -1,-1 -2,0 1,-2 -1,-1 0,-1 -1,-2 -1,-1 -2,-1 0,1 -1,1 2,1 1,1 -1,2 1,1 -1,2 -1,-1 -2,0 0,-2 1,-1 0,-1 -2,-1 -1,1 0,1 -1,2 -2,-1 -2,-1 0,-1 -1,-1 -1,-1 -2,1 -1,-1 1,-1 -1,-1 -2,1 -1,-1 1,-1 -1,-2 -1,-1 0,2 -1,2 -1,-2 -1,-1 0,-1 1,-1 0,-1 0,-1 1,-2 0,-1 2,1 -1,2 1,1 1,1 1,-2 0,-1 1,-1 -1,-1 0,-1 -2,0 -1,-1 1,-1 0,-1 1,-1 -1,-1 1,-2 1,1 2,-1 0,2 0,1 -1,1 0,1 1,2 1,1 0,2 0,1 -1,1 0,1 -1,1 0,1 1,1 2,0 0,1 1,1 1,1 2,1 0,1 1,1 1,-2 2,-1 0,-1 1,-1 -1,-1 -1,-2 -2,1 1,1 0,2 -2,0 -1,-1 0,-1 -2,-1 -1,-1 1,-1 0,-1 1,-2 -1,-1 0,-1 -1,-2 -1,-1 2,-1 -1,-1 1,-3 2,0 0,2 1,1 -1,2 -1,1 1,1 1,1 1,-2 1,2 0,1 -2,1 0,1 -1,2 1,1 1,-1 1,-2 1,1 2,0 1,1 -1,1 1,1 2,-1 1,1 -1,1 1,1 2,1 0,-2 0,-2 -1,-1 -2,-1 -1,-1 -1,-1 -2,0 0,-1 1,-2 0,-1 -2,0 -1,-2 2,-1 -1,-2 -1,-2 0,-2 -3,0 -2,0 -2,1 -1,-2 -2,2 -1,-2 -2,-1 -1,-2 1,-3 2,0 0,2 1,1 3,0 2,1 0,-3 -2,-1 0,-2 -2,-1 2,-2 -1,-2 -1,-1 -2,-1 -1,-2 3,0 0,-3 -2,-1 0,-3 -2,-1 -1,-2 -1,-2 0,-2 -1,-2 -2,0 -1,-2 -1,-3 3,1 2,1 2,0 2,1 0,-2 1,-2 -1,-1 1,-1 -1,-1 1,-1 -1,-1 2,-1 -1,-1 1,-1 0,-1 1,-1 -1,-1 1,-1 2,-1 -1,-1 0,-1 1,-1 -1,-1 -2,-1 -1,-1 -1,-1 -1,2 -1,1 -1,-1 -1,-1 -1,-1 -1,2 1,1 0,1 -1,1 1,1 -2,1 1,1 1,1 0,1 -1,1 0,1 -1,1 1,1 1,1 1,-2 1,-2 1,-1 0,-1 -1,-1 0,-1 1,-1 -1,-1 2,-1 2,-1 1,1 -1,1 0,1 -1,1 1,1 -1,2 -1,2 -1,1 0,1 -1,1 1,1 -2,1 2,1 -1,2 -1,-1 -2,0 0,-2 -1,-1 -2,-1 0,3 -1,-1 -2,-1 1,-2 -2,-1 -2,-1 -1,-1 2,-1 -1,-1 1,-2 1,1 1,1 1,1 -1,1 1,1 2,1 0,-2 1,-1 0,-1 -1,-1 -1,-1 1,-1 0,-1 1,-1 -1,-1 -2,-1 1,-2 1,1 1,1 1,-2 -1,-1 -1,-1 -1,-1 1,-1 -1,-1 -2,-1 -1,1 1,1 -1,1 0,1 1,1 0,1 -1,2 0,1 2,1 -1,1 0,1 -2,-1 -1,-1 -1,-1 1,-1 -1,-1 1,-1 0,-1 0,-2 0,-2 1,-2 2,-1 -2,-1 0,-2 0,-2 -1,-2 2,-1 -1,-2 -1,-1 -2,2 -1,-2 0,-2 0,-3 2,1 2,1 2,1 1,2 1,2 2,-1 1,2 1,2 2,1 1,-2 -1,-2 0,-2 -2,-1 -2,-1 1,-3 -2,1 -2,-1 -3,0 1,-2 1,-3 0,-2 0,-2 -2,-1 -1,-3 -3,0 0,2 1,1 1,2 1,2 -1,2 0,2 -2,-1 -2,-1 2,-2 -2,-1 -1,-2 -2,-1 2,-2 -1,-1 0,-2 -1,-3 -2,1 0,-2 1,-2 1,-1 0,-1 0,-2 1,-1 -1,-1 0,-1 1,-2 1,2 1,1 2,-1 -1,-1 1,-1 -2,0 0,-1 -1,-1 -2,0 0,-1 -1,-1 0,-1 1,-1 0,-1 0,-2 -1,-1 0,-1 -1,-1 0,-1 -1,-1 -1,-1 -1,-1 -1,-1 1,-1 -1,-1 -1,-1 -1,-1 1,-1 2,-1 1,-2 1,-1 -2,-1 -1,-2 1,-2 0,-2 -2,-1 0,-2 -2,0 -1,1 0,2 0,2 2,-1 0,2 -1,2 1,1 1,2 0,1 -2,-1 -2,-1 0,-2 -2,-2 0,-2 -2,-1 1,-2 1,1 1,-2 -1,-1 -2,-1 0,-1 -2,0 -2,-1 -1,-1 1,-1 0,-1 -1,-1 0,-1 1,-1 -1,-1 -1,-1 -1,-1 -1,-1 -1,-1 1,-1 2,-1 -1,-1 1,-1 -1,-1 -1,-1 -2,0 0,1 1,1 0,1 -1,1 -2,-1 0,-1 0,-2 1,-1 -1,-1 1,-1 -1,-1 2,-1 2,0 -1,2 0,1 2,0 1,1 1,1 1,-2 -1,-1 -1,-1 1,-2 -2,-1 -1,-1 0,-2 -2,-1 -1,-2 -1,1 -2,0 1,-2 1,-1 0,-2 1,-2 -2,0 0,-1 0,-2 1,-1 0,-1 1,-1 -1,-1 1,-1 -1,-1 -1,-1 -1,1 0,2 0,1 -1,1 0,1 -1,1 0,1 1,1 -2,1 2,1 0,1 1,1 -1,2 -1,2 -1,-1 0,-2 -1,-2 -1,2 -1,1 1,1 -1,2 -1,2 1,1 0,1 1,1 -1,2 -1,-1 -1,-1 -1,-1 0,-2 0,-1 1,-1 -1,-1 1,-2 1,-2 1,-2 1,-1 0,-1 -2,-1 -1,2 -1,2 -2,0 1,-2 -1,-1 1,-2 0,-2 1,-1 -1,-1 2,-1 -1,-1 -1,-1 0,-1 -2,0 -1,-1 -1,-1 -1,-1 -1,-1 -1,1 0,2 -2,0 1,2 2,1 1,-2 1,2 2,0 0,1 -1,2 0,2 -1,3 1,2 -1,3 3,1 -2,2 -1,2 2,0 0,2 1,1 0,2 -1,1 -2,-1 -1,2 2,1 -1,2 1,2 1,1 2,1 1,1 1,-2 -1,-1 1,-1 -1,-1 -2,0 1,-2 1,-2 1,1 2,1 -1,1 1,1 0,2 -1,2 1,1 -1,1 1,1 0,2 1,1 1,1 -1,1 0,1 -1,1 1,1 -1,1 0,1 0,2 0,1 0,2 0,2 -1,2 -2,0 -2,0 1,2 0,2 1,2 1,1 -1,2 -2,0 -2,1 0,2 1,1 1,2 1,-2 0,-2 2,1 0,2 -1,2 2,1 -1,1 1,1 2,0 1,1 0,1 1,1 1,-1 2,0 0,1 0,1 1,1 1,1 1,1 1,-1 -1,-2 0,-1 -1,-1 1,-2 0,-1 1,-2 -2,-1 -1,-2 -1,-1 -1,-1 1,-2 -2,-1 -1,2 0,1 0,2 2,1 1,2 1,1 -1,2 -2,0 -1,-1 1,-2 -2,-1 -1,2 -1,-2 0,-1 0,-2 1,-2 -2,0 1,-2 2,-1 -1,-2 -2,-1 2,-1 -2,-1 2,-1 1,-2 1,-2 -1,-1 1,-1 -1,-1 1,-1 -1,-1 1,-1 0,-1 1,-1 -1,-1 1,-1 0,-1 1,-1 -1,-1 -1,-1 -1,-1 1,-1 -1,-1 1,-1 0,-1 -1,-1 0,-1 1,-1 -1,-1 1,-1 -1,-1 1,-1 -1,-1 1,-1 0,-1 1,-1 -1,-1 -1,-1 -1,-1 1,-1 2,1 1,1 1,1 0,-2 2,0 1,1 -1,1 1,1 -1,1 -2,0 0,1 -1,1 1,1 -1,1 1,1 -1,1 1,1 -1,1 0,1 1,1 0,1 2,0 1,1 1,2 0,1 2,1 1,1 -1,1 0,1 1,1 0,1 -1,1 0,1 2,1 0,1 2,0 0,1 2,0 1,1 -1,1 0,1 -1,2 -1,-1 -1,-1 1,-1 -2,-1 -1,2 0,-1 -1,-1 0,-1 -1,-1 -1,1 0,2 0,1 -1,2 -2,0 0,-2 1,-1 0,-2 0,-1 2,-1 -1,-1 0,-1 1,-1 0,-1 -1,-1 0,-1 1,-1 -1,-1 -1,-2 -1,-1 -2,0 0,1 1,1 1,1 0,2 -1,1 1,1 0,1 -1,1 0,1 -1,1 1,1 -1,1 1,1 -1,1 0,2 -1,2 1,1 -1,2 -1,2 2,1 1,-2 1,-2 2,1 2,1 -1,2 -2,-1 -1,2 2,1 -1,2 1,1 0,2 2,1 0,-2 0,-2 0,-2 2,1 1,2 -1,1 0,2 -1,2 0,2 -1,2 0,1 0,2 1,1 1,1 -1,1 2,1 1,1 1,1 1,1 2,1 0,-1 -1,-1 -1,-1 -1,-2 -1,-1 2,-1 -1,-1 -2,0 0,-1 -1,-1 1,-2 2,1 1,1 1,1 2,0 2,0 1,-1 0,-2 2,1 0,1 1,1 1,1 1,1 2,0 0,-1 -1,-1 -1,-1 -1,-1 1,-1 -1,-1 -2,0 1,-2 -2,-1 -1,2 -1,-2 0,-2 -1,-2 -2,1 0,2 1,1 -2,1 2,1 1,2 -1,1 -2,-1 -1,-1 -2,-1 0,-1 0,-2 2,0 -1,-2 1,-2 -2,-1 1,-2 -1,-1 -2,0 1,-2 2,-1 -3,-1 -2,-1 0,-2 2,0 2,1 2,1 2,0 0,2 2,0 0,2 -3,0 1,2 -1,1 1,2 2,-1 1,-2 2,1 1,1 -1,2 0,2 2,0 1,1 1,2 1,1 1,1 1,1 -1,1 1,1 1,1 1,1 -1,1 0,1 -1,1 0,1 1,1 0,1 1,1 1,1 -1,1 0,1 -1,1 1,1 -1,1 1,1 -1,1 0,1 -1,2 -1,-1 0,-2 0,-2 0,-2 -1,-1 2,-1 0,-1 -2,0 0,-1 1,-1 -1,-1 -1,-1 1,-1 -1,-1 -2,0 -1,-1 -1,-1 -1,1 1,2 0,1 -1,1 -1,-1 -1,-1 1,-1 -1,-1 -2,0 0,1 -1,1 1,1 1,1 1,1 1,1 -1,1 1,1 0,2 1,1 -1,1 1,1 -1,1 0,1 -1,2 -1,-1 -2,-1 -1,-1 0,-2 1,-1 1,2 1,1 0,-2 0,-2 0,-1 -2,0 -1,1 -1,-1 0,-1 -1,-1 -1,-1 -1,-1 -1,-1 -2,-1 -1,1 1,1 1,1 1,1 1,1 0,1 1,1 1,1 -1,1 1,1 -1,1 1,1 1,1 0,2 0,2 0,2 0,2 0,2 1,1 1,2 -1,2 4,-1 -1,2 0,2 0,2 2,1 2,1 2,-1 -1,-2 -1,-1 -1,-2 1,-2 2,2 2,1 1,2 0,2 1,2 0,3 3,0 -1,-2 0,-3 2,0 -1,-3 -2,-1 -1,-2 -2,-2 -1,-1 0,-2 -3,1 -3,1 -1,-2 2,-1 -2,-1 -1,-2 0,-3 2,1 1,2 2,1 2,1 2,-1 -2,-2 -1,-2 -1,-1 0,-2 1,-1 0,-1 1,-1 -1,-1 1,-1 -1,-1 -1,-1 0,-1 1,-1 -1,-1 1,-1 0,-1 1,-1 1,2 0,1 0,2 0,1 1,2 0,1 0,2 0,1 -1,1 1,1 0,2 2,0 0,2 3,1 0,2 -3,0 1,2 1,1 0,2 2,1 1,1 0,2 1,2 1,2 0,2 -2,1 1,2 1,1 1,2 2,2 -2,1 -2,-1 0,3 0,3 2,0 1,-3 2,0 0,2 0,2 0,2 -2,0 0,2 2,0 0,1 -1,1 0,1 0,2 0,2 1,1 0,1 1,1 -1,2 -2,-1 -2,-1 0,-2 -3,1 0,2 -2,2 -1,-2 0,-2 1,-2 -2,-1 0,-2 -1,-2 -2,3 -1,-1 0,-2 0,-2 1,-2 1,-2 2,1 -1,3 3,-1 0,2 1,2 1,2 2,1 2,-1 -1,-2 -1,-2 -1,-1 1,-2 -2,-1 -1,-2 -1,-1 1,-2 0,-2 1,-3 -2,0 -2,0 0,3 0,2 -2,2 -1,-2 0,-2 0,-2 0,-2 0,-2 0,-2 -2,0 -1,3 -2,-2 -2,-2 -2,1 1,2 0,2 2,0 0,2 2,0 1,1 -3,2 2,1 1,1 1,2 -1,2 -1,2 -2,1 1,2 1,1 -2,2 2,1 -1,2 0,2 -1,2 -2,-1 -1,-1 1,-1 0,-2 -1,-1 0,-2 0,-2 0,-2 0,-2 3,-1 0,-2 -2,0 -1,-1 0,-2 0,-2 -1,-2 -1,-2 0,-2 -1,-2 -2,-1 -1,-2 3,0 2,1 0,-3 -1,-1 -2,0 0,-2 -1,-2 2,-1 -2,-1 -2,-1 2,-2 -1,-1 1,-2 -2,-1 2,-2 -2,-1 2,-1 -1,-1 -1,-1 1,-1 0,-2 -1,-1 0,-1 -1,-1 0,-1 -1,-1 -1,-1 -1,-1 -1,-1 1,-1 -1,-1 -1,-1 -1,-1 -1,-1 -1,1 -1,-1 -1,-2 -1,1 0,1 0,1 1,1 1,1 2,0 1,1 0,1 -2,-1 -1,1 1,1 1,1 1,1 1,-1 1,1 1,1 0,1 1,1 0,1 1,1 1,1 -1,1 0,1 -1,1 1,1 -1,1 1,2 -2,0 -2,0 -1,-1 2,-1 -1,-1 0,-1 1,-1 0,-1 1,-1 -1,-2 -1,-2 -1,2 1,1 -2,1 1,1 -1,2 -1,-1 -2,-1 1,-1 0,-1 1,-1 0,-1 1,-1 -1,-1 -1,-1 -1,-1 -1,-1 -1,-1 1,-1 0,-1 -2,0 0,-1 0,-1 -1,-1 1,-1 1,-1 -1,-1 -1,1 -1,-1 0,-1 1,-1 -1,-1 -2,-1 0,1 -1,1 1,1 -1,1 -1,1 1,1 1,-1 1,1 0,1 0,1 1,1 -1,1 1,1 1,1 0,1 1,1 1,1 1,1 1,1 -1,1 0,1 -1,1 0,1 -1,1 1,1 2,1 1,1 1,1 0,1 1,2 2,1 1,1 3,0 -1,2 0,2 -2,-1 -2,-1 -2,2 -1,-2 0,-2 -2,-1 2,-1 -1,-1 -1,-1 0,-1 -1,-1 -1,-1 -2,-1 0,2 1,1 0,1 1,1 0,1 -1,1 0,1 2,2 0,2 2,1 0,2 0,2 -3,1 0,-2 -1,-2 -2,2 0,2 1,2 2,1 -1,2 2,0 -1,3 0,2 2,1 2,-1 -1,-2 0,-2 0,-2 0,-3 2,1 2,1 -1,3 0,2 2,1 1,1 -1,2 -3,0 0,2 2,1 -1,2 1,2 2,-1 2,2 -2,1 -1,2 0,2 0,1 1,1 1,-2 0,-2 2,0 1,1 2,1 0,-3 -1,-2 -1,-2 -1,-2 -1,-1 -1,-2 2,-1 0,-2 -1,-3 -2,-1 0,-2 0,-2 -1,-2 -1,-1 -1,-2 2,-1 2,1 2,-1 1,2 -2,2 3,0 -1,2 -1,2 1,2 1,2 2,1 -1,2 0,2 0,2 2,-1 1,2 -2,2 2,1 0,2 0,2 0,2 0,2 0,2 0,2 0,1 -1,1 2,1 -1,1 0,1 1,1 1,1 -1,1 1,1 -1,1 1,1 1,1 0,1 -1,1 0,2 0,1 1,1 0,1 1,2 2,1 1,-1 -1,-1 -1,-1 0,-2 0,-1 -1,-1 1,-2 0,-2 0,-1 -1,-1 0,-2 2,1 1,1 0,2 0,2 -1,1 1,1 0,2 0,1 1,1 1,2 1,2 -2,2 -1,-1 -2,0 -2,-1 -1,-2 -1,-1 -1,-1 0,-1 -1,-1 0,-1 1,-1 -1,-1 1,-1 0,-1 -2,-1 -1,1 0,1 -1,1 1,1 -1,1 1,2 0,1 -1,1 1,1 -1,2 -1,-1 -1,2 0,1 1,1 0,1 -1,1 0,2 1,1 2,0 -1,-2 1,-2 -1,-2 2,0 0,-2 1,-2 1,1 1,1 0,2 -1,2 -1,2 2,1 2,-1 0,-2 3,0 2,1 1,1 2,2 -2,1 -2,-1 -3,0 0,2 2,1 1,2 0,2 0,2 -1,2 2,1 2,2 -1,2 2,1 2,-1 0,-3 -1,-2 -2,-1 2,-2 -1,-1 -1,-2 0,-2 3,1 2,1 0,2 0,2 0,2 1,2 2,1 -2,1 1,2 2,0 1,1 0,2 2,1 2,-1 -1,-2 0,-2 -2,-2 -1,-2 -2,-2 1,-2 -1,-2 0,-2 -3,-2 -1,-1 1,-2 -2,-1 -1,-2 -1,-1 1,-2 1,-3 -1,-1 -2,-1 -1,-2 0,-2 0,-2 0,-2 3,-1 -1,-2 -2,-1 1,-2 0,-3 2,0 1,1 0,2 0,2 2,2 1,2 3,1 0,-2 0,-2 2,0 1,-2 1,2 1,1 -2,1 1,2 3,0 2,1 0,2 2,1 1,2 -2,2 3,0 -1,2 2,1 0,2 2,1 1,2 -3,0 0,2 1,1 3,-1 0,2 1,1 2,2 1,2 -2,1 0,3 2,1 -1,3 3,0 -1,2 -2,1 -2,-1 -1,-2 0,-2 -1,-2 -1,-1 1,-2 1,-2 -2,-1 -2,-1 -2,-1 -2,-1 0,-2 -1,-2 2,-1 0,-2 -3,1 0,-2 0,-2 -1,-2 1,-2 -2,-1 0,-2 -2,-1 -3,0 1,2 1,2 0,2 1,1 1,2 -2,2 2,1 0,2 0,2 2,1 -2,1 -3,-3 -1,-2 -1,-1 0,-2 0,-2 0,-3 -1,-2 -1,-2 -1,-1 -2,-1 -2,-1 0,2 0,2 1,1 2,1 1,2 0,2 -1,2 1,1 -1,2 2,1 1,2 0,2 2,0 1,1 1,2 -1,2 1,2 0,2 2,1 0,2 2,1 0,2 1,2 0,2 2,1 1,1 0,2 0,1 -2,-1 0,2 1,1 1,2 1,1 1,-2 -1,-1 2,-1 -1,-1 2,-1 -1,-1 0,-2 -1,-2 -2,-1 0,-2 -1,-2 -1,-2 -2,-2 0,-2 -1,-1 0,-2 0,-2 2,1 2,0 1,2 3,0 -1,2 -3,0 1,2 2,1 0,2 2,1 -1,2 2,1 1,2 1,1 0,2 0,2 0,2 -1,1 -1,-1 -1,2 1,1 -2,1 1,1 0,1 -1,2 -1,2 -1,1 1,1 1,1 1,-1 1,-2 0,-1 1,-1 -1,-1 1,-1 1,-2 0,-1 1,-1 1,-2 2,1 0,1 -1,1 0,1 -1,1 1,1 -2,1 1,1 -1,1 0,1 -1,1 0,1 -1,1 1,1 -1,2 -1,1 0,-2 -2,-1 -3,-1 -1,-2 1,-2 1,-1 0,-1 0,-1 -2,0 0,-1 -1,-2 -1,-1 -1,2 1,1 0,2 1,1 -1,1 0,1 -2,-1 0,-2 -1,-1 0,-1 0,-1 1,-2 1,-2 0,-1 -1,-1 2,-1 -1,-1 -2,0 -2,1 1,1 0,2 0,1 0,1 -1,2 -1,-1 -1,-1 -2,0 0,-1 -1,-1 -2,0 1,-2 0,-1 2,1 1,1 2,1 0,-1 -1,-2 -1,-1 -1,-1 -2,0 -1,-2 -3,0 1,2 1,1 -1,2 -1,-1 -2,-2 -2,-2 -2,-2 0,-3 -2,1 -1,-2 -1,-2 -3,1 -1,-3 3,0 3,-1 -1,-1 0,-2 -2,-1 0,-2 -3,0 -1,2 2,2 -2,1 -2,-1 -3,-1 2,-1 -1,-1 1,-1 -1,-1 -1,-1 -1,2 -2,0 1,-2 0,-1 2,-1 -1,-1 1,-1 -1,-1 -1,-1 -1,2 -1,1 0,1 -2,-1 1,-2 1,-1 0,-1 -1,-1 -2,2 0,-1 -2,-1 -1,-1 2,-1 1,1 2,-1 0,-1 -1,-1 0,-1 -1,-2 -1,-1 0,-1 -1,-3 0,-1 -1,-1 -1,-1 1,-1 1,-1 1,-2 1,-1 -1,-1 -1,-2 1,-1 0,-1 1,-1 2,1 0,1 -1,1 0,1 1,1 0,2 -1,1 -1,1 1,1 -2,1 1,1 1,1 1,-1 -1,2 -1,1 1,1 1,1 1,-2 1,-1 0,-1 2,1 1,1 -2,1 -1,1 0,1 -2,1 1,1 1,1 0,1 0,2 1,1 1,1 1,1 1,-2 -1,-1 -1,-1 0,-1 2,0 1,1 1,-2 -1,-1 -2,0 -1,-1 1,-1 0,-1 2,1 0,-2 0,-1 1,-1 1,-2 2,1 1,-1 -1,-1 1,-1 -1,-1 0,-2 -1,1 -1,2 -1,-1 0,-2 1,-1 0,-1 1,-1 0,-1 1,-1 -2,-1 1,-1 -1,-1 -2,-1 -1,1 0,1 1,1 1,2 -1,1 -1,-1 -1,-1 -1,2 1,1 1,1 -1,1 1,1 -1,1 1,1 1,1 0,1 -1,1 -2,-1 0,-1 -2,0 -1,-1 2,-1 -1,-1 0,-1 1,-1 -1,-1 0,-2 1,-1 0,-1 -1,-1 -1,-1 -1,-1 -2,1 -1,-1 -1,-1 -1,-2 -1,-1 -1,-1 -1,3 2,1 -1,2 2,0 0,1 -1,2 0,2 1,1 0,2 -1,1 -1,1 -1,-2 1,-1 -1,-2 -1,-2 -3,0 1,-2 1,-2 -2,-1 1,-2 -3,0 -2,-1 -2,-1 0,3 2,1 1,1 1,2 -2,2 2,1 2,1 2,1 0,2 0,1 1,1 -2,1 1,1 0,1 1,1 1,-2 1,2 0,1 1,1 1,1 -1,1 0,1 1,1 1,1 1,1 -1,2 -1,-1 -2,0 0,-1 -1,-1 -1,-1 1,-2 -1,-1 -2,1 1,-2 -2,-1 0,-1 -1,-1 0,-2 0,-1 1,-2 -2,-1 0,2 -2,2 0,-2 -1,-2 -1,-1 -1,-2 0,-2 0,-2 -3,0 1,-2 0,-2 0,-2 1,-1 0,-1 2,0 -1,-2 1,-1 -1,-1 1,-1 -1,-1 1,-1 -1,-1 -2,0 -1,1 1,1 0,2 0,2 -1,1 -1,1 0,1 -1,2 -1,2 -1,-1 1,-2 -2,-1 2,-1 -1,-1 -2,0 0,-1 2,-1 2,1 1,-1 -1,-1 1,-1 -1,-1 0,-2 1,-1 0,-1 -1,-1 0,-1 1,-1 -1,-1 1,-1 -1,-1 -2,1 0,-1 -1,-1 -1,-2 0,-1 2,1 1,1 2,0 1,1 1,1 0,2 0,2 0,1 1,1 2,0 1,1 1,1 0,2 0,2 0,2 1,1 1,2 2,1 2,-1 1,-2 -2,0 -1,-2 -1,-1 -1,-2 0,-2 1,-1 -1,-2 -1,1 -2,-1 -1,-1 -1,-1 0,-1 1,-1 -1,-1 1,-1 0,-1 1,-1 0,-2 0,-1 -1,-1 -1,-1 -1,-1 0,-1 1,-1 -1,-1 1,-1 0,-1 -1,-1 -1,-1 0,-2 2,1 1,1 1,1 1,1 0,1 -1,1 1,1 -1,1 0,1 2,1 0,1 1,1 0,1 -1,1 1,1 -1,1 0,1 -1,1 0,2 0,1 1,1 1,-1 0,-2 1,-2 1,2 0,2 0,2 1,2 0,2 2,1 0,2 2,1 2,1 -1,2 2,1 1,1 1,1 -1,1 1,1 2,1 1,-1 -1,-1 1,-1 0,-1 -2,-1 0,-1 -2,-1 1,-2 -1,-2 -2,0 -2,-2 -1,-2 0,-2 -1,-1 0,-2 0,-2 -2,-1 0,-2 0,-1 -1,-1 1,-2 1,1 1,-2 2,-1 -1,-1 1,-1 -1,-1 -1,-1 -2,1 1,1 -1,1 0,1 -1,1 -2,-1 0,-1 1,-1 -1,-1 2,-1 -1,-1 -1,-1 0,-1 -2,-1 0,-1 1,-1 -1,-1 1,-1 0,-1 1,-1 0,-1 -1,-1 0,-1 2,-1 -1,-1 -1,-1 1,-2 -1,1 -1,-1 0,-1 -1,-1 -1,-1 -1,-1 0,-1 1,-1 -2,0 0,-1 1,-1 -1,-1 -1,-1 -1,-1 0,2 -1,1 1,1 -1,1 1,1 0,1 1,1 1,1 1,1 0,1 1,1 0,1 1,1 1,1 -2,1 0,1 1,1 0,1 -1,1 0,1 0,2 -2,0 0,-1 -1,-1 1,-2 0,-1 -1,-1 0,-1 1,-1 0,-1 -1,-1 0,-1 -1,-1 0,-1 -1,-1 -1,-1 -1,-1 -1,1 1,2 0,1 1,1 0,1 1,1 0,1 -1,1 0,1 1,1 0,1 1,1 -2,1 1,1 0,1 -1,1 1,1 -1,1 1,1 1,1 0,1 -1,1 1,1 -1,1 0,1 -1,1 1,1 2,0 1,1 0,1 1,1 -1,2 -1,-1 -1,-1 -1,-1 -1,1 -1,-1 0,-1 -1,-1 0,-2 0,-1 1,-1 -1,-1 1,-1 0,-1 -2,-1 -1,1 0,1 -1,1 1,1 -2,1 1,1 1,1 0,1 0,2 -2,0 0,-1 -1,-1 0,-1 -1,-1 -1,-1 1,-1 0,-1 1,-1 0,-1 1,-1 -1,-1 -1,-1 -1,-1 1,-1 0,-2 -1,-1 -2,-1 0,-3 -1,-2 2,0 2,-1 -1,-1 1,-1 0,-1 2,0 1,1 -1,1 1,1 -1,1 1,1 -1,2 0,-1 -2,-1 -1,1 0,1 1,1 1,1 1,1 1,1 -1,1 1,1 -1,1 1,1 2,1 1,-1 -1,-1 1,-1 -1,-1 1,-1 0,-1 0,-1 -2,0 0,-1 1,-1 0,-1 1,-1 0,-1 -1,-1 0,-1 0,-2 -1,-1 0,-2 -1,1 -1,-1 -1,1 0,-2 -1,-1 -1,-1 -1,-1 0,-1 -1,-1 -1,-1 1,-1 0,-1 -1,-1 0,-1 -2,-1 -1,-1 -2,-1 -1,-2 -1,-1 -2,-1 -1,-1 0,-2 -2,-1 -2,0 -1,1 1,1 2,1 -1,2 -2,-1 -2,-1 0,1 1,1 1,1 1,1 0,1 -1,1 0,1 -1,1 1,1 1,1 0,2 0,2 0,1 -1,1 1,1 -1,1 -2,1 -1,-1 1,-1 -1,-1 1,-1 0,-1 1,-1 0,-1 -1,-1 0,-1 -1,-1 -2,1 0,1 1,1 0,1 -2,1 1,1 -1,1 1,1 -1,1 0,1 -1,1 0,1 1,1 1,1 0,2 2,1 2,0 -1,-2 -1,-1 -1,-2 0,-1 2,1 1,1 1,1 1,-2 -1,-1 2,-1 1,1 1,1 2,1 2,2 1,-2 -1,-2 -2,-1 -1,-1 -2,-1 2,-1 -2,-1 0,-2 0,-2 0,-1 -1,-2 1,-1 0,-2 1,-2 2,1 0,2 2,1 -2,1 1,1 2,1 1,-2 2,1 1,2 -2,0 -1,2 -2,-1 -2,-1 -1,2 2,1 1,1 0,2 2,0 0,2 2,1 2,1 1,-2 -1,-1 -2,-1 -1,-2 1,-2 2,1 0,1 1,1 1,1 1,1 1,1 -1,1 1,1 -2,1 0,1 -2,1 -2,-1 0,3 -2,-1 -2,1 1,2 1,1 3,-1 0,2 0,2 2,1 2,1 -1,2 0,2 2,1 -1,1 0,1 -1,2 -1,-1 -1,-2 -2,-1 1,-2 -2,-1 2,-1 -2,-1 -1,-2 -2,-1 -2,-1 0,-2 -1,-3 -1,-1 -2,-1 0,3 1,2 -1,2 1,1 0,2 1,2 2,-2 2,1 -1,2 1,1 1,2 -2,1 1,2 2,-1 2,1 1,2 0,2 2,0 1,2 1,-2 1,2 0,1 1,1 1,1 1,1 1,1 -1,1 1,1 1,1 2,1 -1,1 0,2 1,1 -1,1 1,1 -1,1 1,1 -2,1 -2,1 -1,-1 1,-1 0,-1 1,-1 -1,-1 1,-1 0,-1 0,-2 -1,-1 -1,-1 -1,2 1,1 -1,1 0,1 0,2 -2,-1 0,-2 -2,0 2,-2 -1,-1 -2,-1 0,1 -2,-1 1,-3 1,1 2,0 1,1 1,1 1,-2 -1,-1 0,-1 -2,0 0,-1 -1,-1 -2,-1 0,3 -2,-1 -1,-2 -1,-1 1,-3 -1,-1 -2,2 -2,-2 -1,-2 -1,-2 2,-2 -3,0 0,-2 -2,-1 0,-2 -2,-1 1,-2 0,-2 -3,1 -1,2 -2,-3 -1,-2 1,-2 -2,-1 -1,1 0,1 -2,-1 1,-2 1,-1 0,-1 1,-1 -1,-1 2,-1 -1,-1 1,-1 -1,-1 2,-1 -1,-1 1,-1 -1,-1 1,-1 -1,-1 0,-2 -1,-1 2,-1 -1,-1 0,-2 0,-1 -1,-1 0,-1 1,-1 -1,-1 1,-1 2,-1 0,1 1,1 0,1 -1,1 0,1 0,2 0,1 1,2 0,1 -1,1 0,1 1,1 2,-1 0,-1 1,-1 0,-1 -1,-1 -1,-1 0,-2 0,-1 2,-1 -1,-1 2,-1 0,-1 -2,0 0,-1 -1,-1 -2,-1 1,-1 0,-1 1,-1 -1,-1 -1,-1 -1,-1 0,-1 0,-2 0,-1 0,-2 1,-2 1,-2 0,-2 0,-2 1,-2 -1,-1 0,-1 1,-1 0,-1 1,-1 -1,-1 -1,-1 0,-1 1,-1 2,1 0,1 1,1 1,1 -1,1 0,1 -1,1 1,1 -1,1 0,1 -1,2 2,1 1,2 1,1 -3,-1 -1,2 -1,2 0,2 0,1 -1,2 1,1 1,1 1,1 0,2 -1,1 1,1 2,1 0,-2 0,-1 0,-2 -1,-2 1,-2 -2,0 1,-2 0,-2 3,0 0,2 2,-1 1,2 -2,1 1,2 -2,0 1,2 0,2 0,2 0,2 2,1 2,1 1,2 0,1 2,1 1,-2 1,-2 -2,-1 0,-2 -3,0 0,-2 -1,-1 0,-2 1,-2 1,1 2,0 -1,2 2,1 1,-2 1,-1 1,-2 1,-2 -1,-2 2,0 2,1 -1,2 0,1 -1,2 -1,2 -2,1 0,2 0,2 1,1 0,2 -1,1 1,1 -1,2 -2,0 1,2 2,1 1,1 2,1 0,1 1,1 0,1 1,1 0,1 -1,1 1,1 1,1 0,1 1,1 1,1 0,-2 2,1 0,1 1,1 1,-1 0,-2 0,-1 1,-1 0,-1 -1,-1 1,-1 2,0 -1,-1 -1,-1 -2,0 0,1 -1,1 0,2 0,1 0,1 -2,-1 -1,-1 1,-1 0,-1 -1,-1 -1,-1 1,-1 2,1 1,-1 -1,-1 -1,-1 1,-1 -1,-1 -2,1 0,1 -1,1 -1,-2 -1,-1 -2,-1 1,-2 1,-1 -1,-2 1,-2 -1,-2 3,0 2,1 0,3 -2,0 0,2 -1,2 2,1 1,-2 1,-1 1,2 1,-2 0,-2 0,-2 -1,-2 -1,-2 -1,-1 -1,-2 -1,2 -2,0 1,-2 1,-2 1,-2 1,-2 -1,-2 -2,-1 -1,-2 -2,1 -1,-2 1,-1 2,0 -2,-1 -1,-1 -2,0 0,1 0,1 -1,1 -2,-1 0,-1 1,-1 0,-1 -1,-1 -1,-1 -1,2 0,1 -1,-2 0,-1 1,-2 1,-1 -1,-1 1,-1 -1,-1 1,-1 -1,-1 -1,-1 0,-1 1,-1 0,-1 0,-2 -1,-1 2,-1 1,-1 0,-1 -1,-1 -1,-1 1,-1 2,-1 0,2 1,2 0,2 -1,1 -1,1 0,1 1,1 0,1 -1,1 0,1 1,1 0,2 1,1 -1,1 1,1 -1,1 0,1 1,1 2,1 0,-1 1,-1 -1,-1 1,-1 -1,-1 1,-1 -1,-1 -1,-1 0,-1 1,-1 -1,-1 0,-1 0,-2 0,-1 1,-1 0,-1 0,-2 -1,-2 0,-2 0,-2 -2,0 1,-2 0,-2 -2,0 0,2 -1,1 -1,1 1,1 -2,1 -1,-2 -1,-1 2,-1 1,-1 -1,-1 1,-1 -1,-1 -1,-1 -1,-1 -1,-1 0,-1 -1,-1 -1,-1 -1,-1 -1,-1 -2,0 1,-1 0,-1 -1,-1 0,-2 -1,-1 1,-1 -1,-1 -1,-1 0,-1 1,-1 0,-1 -1,-1 0,-1 -1,-1 -2,0 0,2 1,1 0,1 -1,1 0,2 1,1 1,1 0,1 1,1 0,1 0,2 0,1 1,2 1,1 1,-1 1,1 1,1 -2,1 -2,-1 0,1 1,2 0,1 0,1 1,1 1,1 1,1 1,-2 -1,-1 0,-1 -1,-1 1,-2 1,1 1,1 1,1 1,1 -1,1 1,1 -2,1 0,1 -2,1 1,1 -1,2 -2,-1 0,1 -2,-1 -1,-1 2,-1 1,-1 -1,-1 -2,1 -1,-1 1,-1 0,-1 -1,-1 0,-1 1,-1 -1,-1 -1,-1 0,-1 1,-1 0,-1 -1,-1 -1,-1 1,-1 0,-1 -1,-1 0,-1 -1,-1 0,-1 -1,-2 -1,-1 1,-2 0,-2 -1,-2 1,-2 2,0 -1,-2 -1,-2 -1,-1 -2,0 -2,0 -2,0 1,-3 -3,1 1,-1 -1,-1 -1,-1 -1,-1 1,-1 -1,-1 -1,-1 -2,1 1,1 -1,1 1,1 1,1 1,1 -1,1 0,1 -2,-1 -1,-1 0,-1 -1,-1 -1,-1 1,-1 -1,-1 1,-1 -1,-1 -2,0 -1,-1 0,-1 1,-1 0,-1 -2,0 -1,-1 -1,2 1,1 0,2 0,2 1,-1 2,1 -1,1 1,1 1,2 0,1 1,1 1,1 -1,1 0,1 0,2 -1,2 1,1 1,1 -1,2 2,1 1,2 2,0 0,-3 -1,-1 0,-2 2,-1 -2,-1 -2,0 0,-2 1,-1 0,-1 2,1 2,-1 0,2 1,1 3,0 2,0 2,0 -1,2 -1,2 1,2 0,2 -2,1 -1,-2 0,-2 0,-2 -2,-1 -1,2 0,2 -1,2 2,1 1,2 0,2 -1,2 1,2 1,1 0,2 1,2 2,2 1,-2 0,-1 -1,-1 0,-2 0,-1 0,-2 -2,0 1,-2 0,-2 2,1 1,1 0,2 0,1 1,1 0,1 -1,1 1,1 1,1 0,1 -1,1 0,1 -1,2 2,-1 1,1 -1,1 0,1 1,1 0,1 -1,2 -1,-1 -1,-1 -1,-1 -2,0 1,-2 -2,0 0,-2 -2,-1 -1,2 0,2 1,2 0,2 0,2 0,2 3,0 0,-4 2,1 1,1 2,1 1,-2 1,1 0,2 1,1 2,0 1,1 1,1 0,1 -1,1 1,1 -1,1 1,1 1,1 1,1 1,1 1,-2 -1,-1 -1,-1 1,-1 0,-1 -1,-1 -1,-2 2,0 1,1 1,1 1,-1 -1,-2 -1,-1 1,-2 1,1 1,2 1,2 0,1 -2,1 0,1 -1,1 2,1 -1,1 0,1 -1,1 0,1 1,1 0,1 1,1 0,2 -1,1 1,1 -2,1 1,1 -1,1 1,1 0,1 1,1 1,1 1,1 1,1 2,1 2,0 0,2 -2,0 1,2 1,1 0,2 -2,0 -1,-1 -2,0 1,-2 -1,-2 -1,-2 -2,-1 0,-1 -1,-1 -1,-1 -1,-1 -1,-1 1,-1 0,-1 0,-2 1,-1 0,-1 1,-1 -1,-1 -1,-1 0,-1 -2,-1 -1,-1 -1,-1 -1,-1 -1,-1 -1,-1 1,-1 -1,-1 1,-1 0,-1 -2,0 -1,-1 -1,-1 -2,-1 -1,1 1,1 1,1 1,1 1,1 -1,1 1,1 1,2 1,1 1,1 -2,1 -1,-1 -1,-1 0,-1 -1,-1 -1,1 -1,-2 1,-1 0,-1 -1,-1 -1,-1 -2,-1 -1,1 1,1 1,1 0,1 -1,1 1,1 -1,1 2,0 0,1 1,1 0,1 -2,1 0,1 1,1 0,1 1,1 0,2 0,1 1,2 1,-2 0,-2 0,-1 1,-1 -1,-1 -1,-1 0,-1 1,-1 2,1 0,1 1,1 1,1 -1,1 0,1 -1,1 0,2 1,1 -1,2 0,2 0,2 -1,2 0,2 -1,2 1,1 0,1 0,2 1,1 1,1 -1,2 -1,1 1,1 -1,1 -2,0 0,1 -1,1 1,1 -1,1 0,1 1,1 0,1 1,1 0,1 -1,1 0,1 -1,1 2,1 -1,1 1,1 -1,1 1,1 -1,1 0,1 -1,1 1,1 -1,1 0,1 -1,1 1,1 -1,2 -1,-1 -2,-1 0,-1 1,-1 -1,-1 -2,2 -1,-2 1,-1 0,-1 2,0 2,1 0,-2 0,-1 1,-1 0,-1 0,-2 -1,-1 -1,-1 1,-1 0,-1 1,-1 0,-1 -1,-1 0,-1 0,-2 -1,-1 1,-1 -1,-1 2,-1 0,-1 -2,0 0,-1 -1,-1 0,-1 1,-1 -1,-1 -1,-1 -1,-1 1,-1 0,-1 -1,-1 0,-1 1,-1 -1,-1 1,-1 2,1 1,1 -1,1 0,1 0,2 1,1 0,1 1,1 1,1 -1,1 0,1 2,1 0,-1 2,-1 -1,-1 -1,-2 0,-1 -1,-1 -1,-1 1,-1 0,-1 1,-1 0,-2 -1,1 -1,-1 -1,-1 0,-1 1,-2 1,2 2,0 -1,-2 1,-2 -3,0 -1,-2 -1,2 -1,1 1,1 -1,1 0,1 -1,1 -2,-1 0,-1 1,-1 0,-1 -1,-1 2,-1 1,-1 0,-1 1,-1 0,-1 1,-1 -1,-1 -1,-1 0,-1 0,-2 1,-1 -1,-1 -1,-1 -1,-1 1,-1 -1,-1 1,-1 0,-1 -1,-2 -1,1 -1,-1 1,-2 -2,-1 1,-2 -1,-2 1,-2 -2,-1 1,-2 0,-2 1,-2 2,-1 -1,-2 -2,1 0,-2 1,-2 -1,-2 1,-2 0,-2 -3,0 0,2 -1,2 1,2 -1,2 0,2 1,2 -1,2 0,2 -1,2 1,2 0,2 0,2 0,2 2,1 -1,1 0,1 1,1 2,0 0,1 -1,1 1,1 -1,1 1,1 1,1 1,1 -1,1 1,1 -1,1 1,1 -1,1 2,1 -1,1 0,1 -1,1 0,1 -2,1 0,1 -1,1 1,1 -1,1 0,1 1,1 1,1 -1,1 1,1 -1,1 0,1 1,1 0,1 -1,1 0,1 2,1 1,1 -1,1 0,1 1,1 0,1 1,1 0,1 -1,1 1,1 -1,1 2,1 -1,1 1,1 -1,1 1,1 -1,1 0,1 -2,1 0,1 -1,2 1,1 1,-1 1,-2 1,1 1,1 -1,1 0,1 -1,1 -2,0 -1,1 -1,1 -1,-2 1,-1 -3,1 1,-2 1,-1 0,-1 -1,-1 2,-1 -1,-1 2,-1 1,-1 -1,-1 1,-1 0,-1 -2,-1 0,-1 -2,0 -2,-1 -2,1 1,1 -1,2 -1,1 1,1 1,1 1,-2 0,-2 2,0 1,1 -1,1 1,1 -2,1 0,1 -1,1 0,2 0,1 -2,-1 0,-2 -2,1 0,-2 0,-1 -2,0 -1,-2 2,0 1,-2 0,-2 0,-2 2,-1 -1,-2 -2,1 0,-2 0,-2 -1,-2 -2,-1 0,-2 -2,-1 0,-2 0,-2 1,-1 -1,-1 1,-1 -1,-1 1,-1 2,-1 1,-1 0,-1 -1,-1 0,-1 -1,-1 0,-1 1,-1 -1,-1 -1,-1 0,-1 1,-1 0,-1 -1,-1 0,-2 -1,-1 1,-1 -1,-1 -1,-1 -1,-1 1,-1 -1,-1 -1,-1 -2,0 -1,-2 -2,2 -1,-1 0,-2 2,-1 -2,-1 0,-2 -3,0 0,2 0,2 -1,2 1,1 1,2 0,2 -2,0 -1,-2 -2,0 -1,-1 -2,-1 1,-2 2,1 1,-2 0,-2 -3,1 -2,0 -2,1 0,2 0,1 1,2 -1,2 -2,0 0,-2 -2,1 0,2 1,1 1,1 2,-1 0,2 1,1 0,1 0,2 1,1 0,1 1,2 -1,1 -1,-1 -1,-1 -1,-1 -1,1 1,2 1,1 -1,1 1,1 -1,1 0,2 0,1 1,1 1,2 1,1 2,-1 -1,-1 -1,-1 1,-1 -1,-1 -1,-1 1,-1 0,-2 1,-1 1,1 1,1 -1,1 0,1 1,3 1,-1 0,-1 1,-1 0,-1 1,-1 -1,-1 1,-1 -2,0 -1,-1 0,-2 -1,-1 2,-1 -1,-1 0,-1 -2,0 1,-2 -1,-2 0,-2 0,-2 2,1 2,1 -1,2 1,2 1,2 0,2 0,1 -1,1 0,1 2,0 1,1 1,1 -1,1 1,1 -1,1 0,1 -1,1 0,1 -1,1 0,1 -2,1 1,1 2,1 0,2 2,-1 1,-2 -2,-1 1,-1 0,-1 1,-1 0,-1 2,-1 -1,-1 1,-1 -1,-1 1,-1 -1,-1 -1,-1 -1,-1 -1,-1 1,-2 0,-1 1,-2 -2,0 -1,-2 2,-1 2,0 2,1 2,-1 -1,-1 -2,-1 0,-2 2,0 1,1 1,-1 0,2 1,1 1,1 -1,1 1,1 1,1 0,1 0,2 0,1 0,2 0,1 1,1 0,2 0,1 1,1 0,1 -1,1 -2,-1 -1,-1 1,-1 -1,-1 1,-1 -1,-1 -1,-1 0,-1 1,-1 -1,-1 1,-1 0,-1 -1,-1 0,-1 -1,-1 -2,1 0,1 1,1 0,1 0,2 -1,-1 -2,-1 -1,1 1,1 1,1 1,1 1,1 1,1 -1,1 1,1 -1,1 1,1 -1,1 1,1 2,-1 1,1 -1,1 0,1 1,1 0,2 0,2 0,2 0,2 1,1 1,2 -1,2 0,2 3,-3 0,2 0,2 0,2 1,1 0,2 -2,1 -2,-2 0,-2 -2,-1 -1,-1 -2,0 0,-2 2,-1 1,-2 -2,-2 -1,-1 1,-2 0,-2 0,-2 1,-1 -1,-1 -1,-1 -1,-1 -1,-1 -1,2 1,1 1,1 -1,1 0,2 0,2 -3,-1 0,2 2,1 1,2 1,2 -2,2 -1,-2 -1,-2 -2,-1 -1,-2 -3,0 1,-2 0,-2 -2,-1 -1,2 -2,-1 0,-1 -2,0 0,-2 -1,-1 -1,-1 -1,-1 0,-1 1,-1 -1,-1 1,-1 -1,-1 1,-1 0,-1 -1,-1 -1,-1 1,-1 -1,-1 1,-1 2,1 1,-1 0,-1 -1,-1 0,-1 -2,1 -1,1 0,-2 1,-1 -1,-1 -1,-2 -1,1 -1,1 1,1 -1,1 1,1 -1,1 1,1 -1,1 1,1 -1,1 1,1 1,1 0,1 -1,1 1,1 0,2 -1,2 -1,-2 0,-1 -2,-1 0,-1 1,-1 0,-1 -1,-1 -1,-1 1,-1 -1,-1 1,-1 -1,-1 1,-1 -1,-1 1,-1 -1,-1 -2,1 0,-2 0,-2 0,-1 -1,-1 0,-1 -1,-1 1,-2 2,-1 1,1 -1,1 0,1 1,1 0,1 0,2 0,1 1,1 2,-1 -1,-1 1,-1 -1,-1 0,-2 0,-1 0,-3 -2,-1 0,-2 -2,-1 -2,1 1,2 0,1 -2,-1 0,2 0,1 -1,1 0,1 -1,1 1,1 1,1 0,1 1,1 0,1 -1,1 1,1 -2,1 0,1 2,1 0,-1 2,0 0,2 -1,1 0,1 1,1 0,2 1,1 -3,-1 -1,-2 0,-2 -1,-1 -2,1 0,-2 -1,-1 0,-1 1,-1 0,-1 1,-1 0,-1 -1,-1 0,-1 -1,-1 -1,-1 1,-1 0,-1 1,-1 0,-1 1,-1 -1,-1 1,-1 -1,-1 2,-1 -2,-1 -2,-1 -1,-2 -2,-1 0,1 1,2 0,2 1,1 1,-1 0,2 -1,1 -2,-1 -1,-1 0,-1 0,-2 -1,-1 0,-2 -2,0 -1,1 1,1 0,2 1,1 -1,1 1,1 1,1 1,1 1,1 2,-1 1,1 -1,2 -1,-1 -1,1 -1,2 1,1 1,-1 1,2 0,1 1,1 0,1 -1,1 0,1 -1,2 -1,-4 0,-1 -1,-1 0,-1 -2,0 -2,2 -1,-1 -1,-1 -1,-2 -2,-1 0,1 1,2 -1,2 -1,-2 -1,-1 0,-2 0,-1 -1,-1 -1,1 0,2 0,1 -2,1 -2,0 1,-2 1,-1 -1,-1 1,-1 -1,-1 -1,-1 0,-1 1,-1 0,-1 -1,-1 -1,-1 -1,-1 -1,-1 -1,2 1,1 1,1 0,1 -1,1 0,1 -2,-1 0,-2 -1,-2 -2,-1 -1,-2 1,-3 -3,0 -3,1 2,2 1,2 -1,2 -1,-1 -1,2 2,1 1,2 1,-2 1,-2 2,1 -1,2 -1,2 2,1 2,0 2,1 1,-2 1,1 0,2 -1,2 -3,1 0,-2 -2,-1 -1,2 -3,0 1,-2 0,-1 -2,-1 -1,2 -2,0 0,-2 1,-2 -2,-1 -2,0 1,2 -1,2 0,1 1,2 -3,-1 -2,0 1,-2 1,-1 0,-1 -1,-1 1,-2 -2,0 0,-2 -2,1 0,2 1,1 0,1 0,1 -1,1 0,1 -2,-2 0,-1 1,-1 -1,-1 0,-2 -1,-1 2,-1 0,-2 -1,-1 -1,2 -2,-1 1,-1 0,-1 -1,-1 -2,0 0,1 0,1 -1,1 0,1 1,1 2,0 0,1 -1,1 0,1 1,1 1,-1 0,2 -1,1 0,1 1,1 1,1 -4,0 0,-1 -1,-1 0,-1 1,-1 -1,-1 0,-2 -1,-1 -1,-1 -1,-1 -2,0 -1,1 1,1 2,1 1,1 -1,1 1,1 -1,1 0,1 -2,-1 -1,-1 0,-1 1,-1 -2,0 -1,-1 -1,-1 1,-1 -1,-1 -1,-1 -1,-1 0,-1 -2,-1 -2,-1 0,2 -1,2 2,0 1,1 2,1 0,1 -1,2 2,0 1,1 1,2 -1,-1 -3,0 -2,0 -1,-2 1,-2 -2,0 -2,1 1,3 -2,-1 -2,-1 -1,-1 -2,-1 -1,-1 0,-2 0,-2 3,0 0,2 0,1 2,1 2,0 -1,-2 1,-2 -2,-1 2,-2 -1,-2 -3,0 0,2 -2,1 -1,-2 -2,-1 -1,3 0,2 0,2 0,2 -2,0 0,-2 -1,-2 1,-3 -1,-1 -3,0 0,2 1,1 0,3 -2,-1 -2,-2 -1,-1 -1,-2 0,-3 3,1 0,-3 3,-1 0,2 1,1 3,0 -1,-3 2,0 2,1 1,2 1,-4 2,1 0,2 3,0 0,-3 2,1 1,2 0,2 1,2 3,0 1,1 1,1 1,2 1,1 1,1 2,-1 -1,-1 -1,-1 -1,-1 1,-1 -1,-1 -2,-1 0,-1 -2,-1 0,-1 0,-2 -2,-1 3,-1 1,2 0,1 1,1 1,1 1,1 1,1 2,0 -1,2 1,1 1,1 1,1 0,1 1,-2 1,-2 -2,0 0,-1 2,-1 -2,-1 1,-1 0,-1 1,-1 0,-1 -2,0 -1,1 -1,1 0,1 -2,-1 -1,-1 -1,-1 -1,-2 1,-2 2,0 -1,2 1,1 1,1 1,-1 2,-1 -1,-1 -1,-1 2,-1 2,1 0,2 2,0 0,2 0,2 0,1 0,2 0,2 2,0 2,1 1,1 2,1 1,2 2,1 1,2 2,1 1,-2 1,-2 -2,0 0,-2 -2,0 -1,-2 -2,-1 -1,-2 -3,0 -1,-1 0,-2 -1,-2 3,0 3,0 -1,2 2,1 2,2 2,2 0,-4 0,-2 -1,-1 -2,-5 2,1 1,-1 3,0 0,6 1,2 -2,2 2,1 2,-1 2,0 0,-2 0,-1 -1,-1 1,-2 1,-2 2,1 1,-1 2,0 0,2 1,1 0,2 1,1 1,1 0,1 -2,1 -1,-1 0,-1 -1,-1 -1,-1 1,-1 -1,-1 -2,0 0,1 0,2 1,1 0,1 -1,1 1,1 0,2 1,2 1,-2 0,-2 2,1 1,1 -1,1 1,1 1,2 1,-2 1,-2 0,-1 -2,-1 2,-1 1,-1 0,-1 -1,-1 -1,-1 -1,-1 0,-2 -1,-2 2,0 1,2 0,2 2,1 0,-1 0,-2 0,-2 3,0 1,1 -2,1 1,1 0,1 -1,1 0,1 1,1 -1,2 -1,-1 -1,2 2,1 -1,2 -1,-1 -1,2 1,1 -2,1 1,1 0,1 1,1 0,1 -1,1 0,1 1,1 2,-1 0,-1 1,-1 0,-1 -1,-1 -1,-1 1,-2 1,1 1,1 1,1 0,2 0,1 0,1 -1,1 0,1 2,1 0,-1 1,-2 1,1 1,1 -1,1 1,1 -1,1 1,1 2,-1 1,-1 -1,-1 1,-1 -1,-1 -1,-1 -1,-1 -1,-1 0,-1 -1,-1 1,-1 -1,-1 -1,-1 1,-1 -1,-1 -2,1 -1,-1 1,-1 0,-2 0,-1 1,-2 1,1 2,0 0,-2 -2,0 -1,-1 1,-1 -1,-1 1,-1 0,-2 0,-1 2,2 1,2 2,1 2,2 -2,1 -1,2 -2,1 -2,0 1,1 1,1 2,-1 2,0 1,-2 1,2 2,0 2,-1 1,-2 -3,0 0,-2 -1,-3 -1,-2 -3,-1 3,-2 3,2 1,3 1,1 1,-3 2,-1 -1,-2 -1,-1 -3,-1 3,-3 2,-3 1,3 1,2 2,-1 -1,3 0,2 1,3 -2,0 -2,2 2,1 1,1 1,2 2,0 2,-2 -2,-1 0,-2 2,-1 -1,-2 -1,-1 0,-2 3,0 2,1 1,-2 0,-1 -2,-1 -3,0 -1,-3 -2,-2 0,-3 3,0 -1,2 2,1 2,1 -1,1 1,1 2,0 1,1 1,1 1,-1 0,2 0,1 -1,1 0,1 -1,2 -3,0 1,2 -1,2 1,2 2,1 1,2 1,2 -1,2 -2,-1 -1,-1 0,-2 -2,-1 -1,2 -3,1 -1,2 -2,0 0,-2 0,-2 -2,-1 -1,2 0,2 -3,0 1,2 2,1 2,1 3,-1 2,1 0,-2 1,-2 2,1 0,2 0,2 -1,2 1,1 2,2 -2,1 1,2 -1,2 1,2 1,-2 2,-1 0,-2 1,-2 -1,-2 -1,-1 0,-2 0,-2 3,0 0,2 1,3 3,-1 -1,-2 2,-2 -2,-1 -1,-1 1,-3 -1,-2 -1,-1 -1,-2 -2,-1 1,-2 2,1 1,-2 -1,-1 0,-1 1,-1 0,-1 0,-2 2,0 0,1 1,1 0,1 -1,1 0,1 0,2 -1,1 0,2 2,0 0,2 2,0 -1,2 1,1 -2,2 2,1 2,-1 -1,3 -2,2 1,2 2,-1 1,-2 2,0 2,0 2,0 1,2 1,2 1,2 1,2 2,1 1,1 1,1 1,1 -1,1 1,1 1,1 1,1 -1,1 1,1 -1,1 1,1 1,1 0,1 -1,1 0,1 1,1 1,1 -1,1 0,1 1,1 0,1 2,0 1,1 -1,1 -2,0 1,1 1,1 -2,1 -1,-1 -2,1 1,1 -1,1 1,1 -1,1 0,1 0,2 2,1 0,2 2,-2 -1,-2 -1,-1 1,-1 0,-2 1,-1 1,1 1,1 -1,1 1,1 -1,1 1,2 -1,2 -1,2 1,2 2,-1 0,2 0,2 1,2 2,0 2,0 -1,-2 -1,-1 0,-2 1,-1 -1,-1 -2,-1 -1,-1 2,-1 0,-1 -1,-1 0,-1 1,-1 -1,-1 1,-1 -1,-1 -1,-1 0,-1 1,-1 -1,-1 1,-1 0,-1 1,-1 1,-2 1,1 1,-2 -1,-1 0,-2 -1,-1 1,-1 -1,-1 1,-1 -1,-1 -1,-1 0,-1 0,-2 -1,-1 -1,-1 0,-2 -1,-1 -1,-1 0,-3 -1,-1 1,-2 -1,-2 1,-2 0,-2 -1,-2 2,0 -1,-2 0,-2 1,-2 -2,-1 -2,1 0,2 0,2 -1,2 0,2 1,1 0,2 0,3 -2,-1 -1,-2 -1,-2 0,-2 1,-2 0,-2 0,-2 0,-2 0,-2 3,1 1,-2 3,1 0,-2 -1,-1 0,-2 -2,-1 -1,2 -1,2 -2,-1 0,-2 1,-1 -2,-2 -1,1 -1,-1 1,-2 0,-1 2,1 1,1 2,1 0,-2 -1,-1 1,-1 0,-1 1,-1 0,-1 0,-2 -1,-1 0,-1 0,-2 -1,-1 -1,-1 -2,0 0,1 1,1 1,1 -1,1 0,1 1,1 1,1 -1,1 0,1 -1,1 0,1 -2,-1 -1,-1 2,-1 -1,-1 0,-1 -2,1 0,-2 2,-1 -1,-1 0,-1 -1,-1 0,-1 1,-1 2,-1 -1,-1 0,-1 1,-1 -2,-1 1,-1 0,-2 -1,-1 -2,2 0,2 1,2 -1,2 -1,2 -1,-1 0,-2 0,-1 1,-1 -1,-1 -2,-1 0,2 -1,-1 -1,-1 1,-2 -1,-1 -2,0 0,2 0,1 0,2 2,1 1,1 -1,1 0,1 2,0 0,2 1,1 2,0 0,1 1,1 -2,1 1,1 0,1 -1,1 2,1 -1,1 0,1 2,0 0,1 -2,1 1,1 0,1 -1,1 1,1 2,1 -1,2 1,1 0,2 0,2 0,2 0,2 0,2 -1,2 0,2 1,2 1,2 1,2 2,1 1,2 2,1 -1,2 2,1 1,1 -1,1 1,1 1,1 1,1 -1,1 1,1 -1,1 2,1 -1,1 1,1 -1,1 0,1 2,1 0,1 -1,1 0,1 -1,1 -2,-1 0,-1 1,-1 0,-1 -2,-1 0,-1 1,-1 0,-1 -1,-1 -1,-1 1,-1 -1,-1 1,-1 -1,-1 -1,-1 -1,-1 1,-1 -1,-1 -1,-1 -1,-1 -1,-2 -2,-1 -1,-2 -1,-2 -1,-2 -1,-2 -2,-1 2,-1 1,-2 0,-2 0,-2 -2,1 -2,0 1,3 -2,0 0,3 -2,0 0,-2 0,-2 -2,0 0,-2 2,-1 0,-2 1,-2 2,1 0,2 2,-1 3,-1 -1,-2 -2,-1 -2,0 -2,0 0,-1 0,-1 0,-2 0,-1 -1,-1 -1,-1 1,-2 -1,-1 -1,-1 1,-1 0,-1 2,-1 0,2 1,1 1,1 -1,1 0,1 1,1 0,1 0,2 1,1 0,1 3,0 -1,-1 -1,-2 0,-1 0,-2 0,-1 0,-2 -1,-1 -1,-1 1,-1 -1,-1 1,-1 0,-1 -1,-1 -1,-2 -2,1 1,1 -1,1 1,1 -2,1 -2,0 0,2 -1,1 -1,-1 0,2 0,1 2,1 0,1 -1,1 1,1 1,1 0,1 1,1 0,1 -1,1 0,1 1,1 -2,1 1,1 -1,2 -2,-1 -1,-1 1,-1 -1,-1 1,-1 0,-1 1,-1 0,-1 -1,-1 0,-1 -2,-1 0,-1 1,-1 0,-1 -2,-1 -1,1 0,1 -1,1 -1,-2 -1,-2 -1,2 -1,-1 0,-1 -1,-1 -2,0 -1,-1 1,-1 -1,-2 -2,0 0,-2 2,-2 2,1 0,1 2,1 -2,1 2,1 0,1 1,1 1,-2 0,-2 -1,-2 0,-2 -2,0 1,-2 2,-1 0,-1 1,-2 -1,-2 2,-2 0,2 2,1 -1,1 0,2 -1,2 -1,2 0,2 2,1 -1,1 2,1 -2,1 1,1 -2,1 1,2 1,-1 2,0 0,-2 2,-1 -1,-1 1,-1 2,0 1,-1 -1,-1 1,-1 2,-1 -1,-1 1,-2 -1,-1 -1,-1 -1,-2 -1,2 0,2 1,1 0,1 -1,1 -1,2 -1,-1 -1,2 -1,-2 -1,-1 1,-1 2,0 0,-2 -1,-1 1,-2 1,-2 -2,-1 -1,-1 0,-2 2,1 1,-2 -1,-2 2,0 1,-3 1,1 1,2 -1,1 -1,2 -1,2 2,1 0,-1 1,-2 2,0 0,-2 1,-2 -1,-1 1,-2 -2,0 0,-2 3,0 -1,-2 2,-2 1,2 2,2 -2,1 -1,2 0,2 1,1 -2,1 2,1 -2,1 2,1 0,2 1,1 1,-2 1,-2 0,-2 0,-2 -1,-2 3,-1 3,-1 0,2 1,1 0,2 -3,0 0,2 2,1 2,1 1,1 1,-2 -1,-1 0,-1 1,-2 1,2 1,2 0,1 -1,1 1,1 1,1 0,1 -1,1 1,1 2,1 1,-1 0,-1 -1,-1 0,-2 0,-1 -1,-1 0,-2 -1,-1 1,-1 -1,-1 -2,-2 -2,-1 -1,-3 -3,0 -2,-1 -1,-2 -1,-3 4,0 0,3 3,0 0,-3 0,-3 -3,0 1,-4 4,-3 2,1 3,0 1,3 1,2 2,-1 2,2 0,2 2,1 2,0 -1,-2 0,-2 -1,-2 -2,-1 -2,-1 -1,-2 -1,-2 -3,0 0,-3 3,0 -1,-3 3,1 0,-3 -2,-2 3,-1 0,-3 0,-3 3,-2 0,-3 3,1 2,-2 -2,-1 0,-2 0,-3 3,-1 -1,-2 1,-3 2,-2 1,2 1,2 -2,1 2,2 1,2 3,1 -1,-1 1,-3 -1,-1 0,-2 0,-2 -2,-1 2,-2 -1,-2 -2,1 0,-2 2,-4 1,1 1,2 2,1 0,2 0,2 1,1 1,2 -2,1 1,2 0,2 0,2 0,2 -1,2 0,2 -2,2 0,3 2,2 1,1 0,1 0,2 1,1 1,1 -1,1 0,1 -1,2 0,-1 -2,-1 0,-1 1,-1 -1,-1 0,-2 -1,-2 -2,-1 -1,-2 -2,-1 2,-2 1,-2 1,-2 -2,-1 -4,-3 0,2 1,1 1,2 -1,2 -3,1 1,2 1,2 1,2 1,1 3,1 0,2 1,2 0,2 1,1 1,1 1,1 1,1 1,1 -1,1 1,1 1,1 1,1 -1,1 0,1 0,2 0,1 -2,-1 0,-1 -1,-1 0,-1 1,-1 -1,-1 -1,-1 -1,-1 1,-1 -1,-1 -1,-1 -1,-1 -1,-2 0,-2 -2,-1 -1,-1 -2,-1 -2,-1 0,-2 -1,-3 -3,1 1,2 -1,3 -1,3 3,-1 3,1 0,2 0,2 0,2 0,3 -1,2 -2,-2 0,-2 0,-2 0,-2 -2,-1 -1,3 -2,1 1,2 1,1 1,2 2,2 2,1 2,0 0,-2 2,0 1,1 -1,1 0,1 1,1 0,1 1,1 1,1 1,1 0,1 1,1 1,1 -1,1 1,1 -1,1 0,1 -1,1 1,1 -1,1 1,1 1,1 1,1 -1,1 -2,1 -1,-1 1,-1 -1,-1 -1,-1 0,-2 -1,-1 1,-1 0,-1 1,-1 -1,-1 1,-1 -1,-1 -1,-1 0,-1 -2,-1 0,-1 -1,-1 -1,-1 -1,2 0,2 2,0 0,1 1,1 1,1 -1,1 1,1 -1,1 0,1 0,2 1,1 0,1 -1,1 0,1 -2,-1 0,-1 0,-2 0,-1 -1,-1 0,-1 1,-1 -1,-1 1,-1 -1,-1 -2,0 0,1 -1,1 1,2 -1,-1 -2,-1 1,-2 -2,0 -2,-1 -1,-2 -1,-1 -3,1 0,-3 -1,-2 -3,0 1,3 0,3 0,2 0,2 0,2 1,1 1,2 2,1 1,1 1,1 0,1 -1,1 1,1 -1,1 1,1 1,1 0,1 -1,1 1,1 0,2 1,1 1,1 1,1 0,2 1,1 1,-2 0,-1 -1,-2 -1,-1 -1,-1 1,-1 -1,-1 1,-1 0,-1 -1,-1 -1,-1 1,-1 -1,-1 0,-1 0,-2 -1,-1 -1,-2 -2,-1 0,-3 -1,-2 2,-1 1,2 0,2 2,1 1,-2 1,2 0,1 -1,1 0,1 1,2 0,2 1,1 1,1 -1,1 1,1 1,1 0,1 -1,1 1,1 -1,1 2,1 -1,1 1,1 1,1 0,1 -1,1 1,2 1,1 3,0 2,1 0,2 1,1 0,2 1,2 1,-2 2,0 -1,-2 0,-2 -1,-2 -2,-2 -1,-1 -2,-1 -2,0 0,-2 -1,-1 1,-1 -1,-1 -1,-1 0,-1 0,-2 -1,-2 0,-1 -1,-2 0,-1 -1,-1 0,-1 -1,-1 1,-2 1,1 1,1 1,1 0,1 0,2 1,1 1,1 -1,1 1,1 0,1 0,1 2,0 -1,1 0,1 1,1 0,2 0,1 2,0 0,-2 0,-2 0,-1 0,-2 -1,-1 0,-1 -1,-1 2,-1 0,-1 1,3 1,1 1,2 0,2 0,2 -1,2 2,0 0,2 1,2 2,1 1,1 -1,2 0,2 1,1 1,-2 1,2 2,-1 -1,-2 -1,-1 1,-2 2,0 1,2 2,0 2,0 1,1 2,1 0,2 1,1 -1,2 1,1 0,1 -1,1 1,1 -1,1 1,1 -1,1 1,1 1,1 0,1 1,1 0,1 -2,1 -1,-1 0,-1 -1,-1 0,-1 -1,-2 -1,2 -1,-1 -1,-1 -1,-1 -1,-1 1,-1 0,-1 1,-2 1,1 0,1 0,2 1,1 1,-1 0,-2 0,-1 0,-2 -1,-1 1,-2 -2,-1 -1,1 -2,-1 -1,2 2,1 -1,2 -1,2 -1,-1 0,-2 -1,-1 -2,0 -2,0 -2,1 -1,1 1,1 1,1 -2,1 2,1 0,1 -1,1 1,1 1,1 0,1 -1,1 1,1 -1,1 1,1 1,1 0,1 1,1 1,1 1,-1 1,1 0,1 0,1 1,1 0,1 2,0 -1,2 2,1 2,0 -1,-2 1,-2 -2,-1 -1,-1 -1,-1 -1,-2 -1,-1 -2,0 1,-1 -1,-1 -1,0 0,-2 1,-1 0,-1 -1,-1 -1,-1 0,-2 1,-1 -1,-1 -1,-2 2,0 1,1 1,2 1,1 -2,1 1,1 2,0 0,1 -1,1 -1,2 1,1 1,1 1,1 1,1 0,1 1,1 1,1 1,-1 -1,-2 0,-1 -1,-1 -1,-1 -1,-1 -1,-1 2,-1 1,1 1,1 1,1 1,1 1,1 -1,1 1,1 0,1 0,1 -1,1 2,2 2,-1 -1,-1 1,-1 -1,-1 0,-2 1,-1 1,1 0,1 1,1 1,1 -1,1 1,1 -1,1 2,1 -1,2 -2,1 -1,-2 -3,0 1,2 0,2 0,2 2,-1 0,3 2,-1 1,-2 0,-2 3,1 0,-2 0,-2 1,-2 -2,-1 0,-2 2,1 0,-1 0,-1 -1,-1 1,-1 -2,-1 -1,1 0,1 -1,-2 0,-1 1,-1 0,-1 -1,-1 0,-1 -1,-1 -1,-1 1,-1 -1,-1 2,-1 0,-1 -2,0 0,-1 2,-1 0,-1 -1,-1 -1,1 -1,-1 1,-2 -1,-1 0,-2 0,-1 -2,-1 1,-2 2,1 1,1 1,1 0,1 -1,1 1,2 1,1 1,1 1,1 -1,1 1,1 -1,1 0,1 1,1 0,1 0,1 -2,-1 0,2 2,1 0,1 0,2 1,1 1,1 1,1 0,1 1,1 0,1 -1,1 0,1 0,2 0,2 0,2 0,2 0,2 -3,-1 -1,2 2,1 2,1 1,3 -3,0 1,2 -2,1 -1,2 -1,2 1,2 1,1 -1,2 0,2 0,2 2,1 1,2 2,2 1,-2 -1,-2 1,-2 -3,0 0,-2 2,0 0,-2 -2,0 1,-2 2,-1 -2,-1 -2,0 1,-2 2,-1 2,2 2,0 1,2 -2,1 0,2 0,2 0,2 0,2 2,0 0,2 -2,2 1,1 0,2 -1,2 -2,0 -1,-1 0,-2 -3,1 0,-2 -1,-1 -1,-2 -2,-1 -1,-2 0,-2 1,-2 -1,-1 0,-2 -1,-2 1,-2 1,-2 1,-3 -1,-1 -1,-2 -3,1 1,3 0,2 -1,2 0,1 -1,2 2,1 -1,2 0,1 1,2 0,2 0,2 1,1 -2,1 1,1 2,0 1,1 1,2 1,2 2,1 2,1 -2,2 2,1 2,1 -1,2 2,1 -1,2 -2,-1 -1,-2 -1,-1 -1,2 1,2 1,1 2,1 1,1 -1,2 2,1 -1,2 0,2 1,2 -2,0 -1,2 2,1 -2,1 0,1 1,1 1,-1 1,1 1,1 1,1 1,-1 1,2 -1,1 0,1 1,1 1,1 1,1 0,1 2,-1 0,1 -1,1 1,1 -1,1 0,1 1,1 1,-1 1,1 0,1 1,1 1,1 -1,1 0,1 2,0 1,1 1,1 -1,2 0,-1 -2,-1 -1,1 0,1 1,1 1,1 -2,1 0,1 -1,1 1,1 -1,1 0,1 2,1 0,1 1,1 2,-1 0,-1 -1,-1 -1,-1 1,-1 -1,-1 1,-1 0,-1 2,-1 0,-1 1,-1 0,-1 1,-1 -1,-1 -1,-1 -1,-1 -1,-1 0,-1 -1,-1 -1,-1 1,-1 0,-1 -1,-1 -1,1 -1,-1 0,-1 0,-1 1,-1 -1,-1 1,-1 0,-1 1,-1 1,-2 -2,-1 0,-1 -2,-1 -2,1 1,1 1,1 1,1 -1,1 0,1 -1,2 -1,-1 -1,-1 0,-1 1,-1 -1,-1 -1,-1 0,-1 -1,-1 -2,0 0,-1 -1,-1 1,-2 0,-1 0,-2 0,-2 3,1 1,-2 -2,-1 -2,-1 -1,-2 2,0 -1,-2 -1,-1 2,-1 1,2 2,1 -1,2 2,1 1,-2 0,-2 -1,-1 1,-1 -2,0 0,-1 -1,-1 -2,0 0,-1 -2,0 1,-2 -2,-2 2,-1 2,1 2,1 -1,1 1,1 1,1 1,1 2,1 0,-1 0,-1 -1,-1 -1,-1 0,-2 0,-2 -1,1 -1,-1 -2,-1 1,-2 2,1 1,-1 2,1 1,1 -1,1 1,1 -1,1 1,1 1,1 0,1 0,2 1,1 1,1 2,-1 0,1 0,1 0,2 -2,0 0,-1 -2,0 0,-1 -1,-1 -1,1 0,2 0,2 2,-1 0,2 -1,2 -2,-1 0,2 1,2 1,1 0,2 -2,0 -2,0 0,-2 -2,0 0,2 -1,1 1,1 2,1 1,-1 2,0 2,1 1,-2 2,-1 -1,-1 0,-2 0,-2 0,-2 0,-2 2,0 2,0 1,-1 -1,-1 1,-1 -1,-1 1,-1 0,-1 -1,-1 0,-1 1,-1 -1,-1 1,-1 0,-1 1,-1 -2,-1 1,-1 0,-1 -1,-1 -1,-1 -1,2 0,1 0,2 1,1 -1,1 0,1 0,2 -1,1 -1,-1 0,-1 0,-2 -1,-1 1,-1 0,-1 -1,-1 1,-1 1,-2 -2,-1 -1,2 -1,-1 0,-2 0,-2 -2,-1 -1,2 0,2 -3,0 0,-2 1,-2 -1,-2 -1,-2 0,-1 -1,-2 2,-1 1,-2 2,1 -1,2 1,1 -1,2 1,2 3,0 -1,-2 0,-2 2,-2 -1,-1 -1,-2 1,-2 -1,-2 -3,1 1,2 -3,0 -1,-2 -2,-1 -2,-1 2,-2 0,-3 -2,-1 2,-2 -2,-1 0,-2 0,-2 0,-2 0,-2 -1,-1 1,-2 2,1 1,-1 2,1 -1,2 -2,0 1,2 0,2 0,2 2,1 0,2 0,2 1,2 -1,3 3,0 2,-1 0,-3 -1,-2 2,-1 0,-2 -3,1 1,-2 -2,-1 -1,-1 0,-2 0,-2 2,-1 0,-1 -1,-1 -1,-1 -1,-1 1,-2 0,-1 0,-2 2,0 0,1 0,2 -1,1 1,1 1,1 1,1 1,-1 0,-1 -1,-1 1,-1 -1,-1 1,-1 0,-1 -1,-1 0,-1 -1,-1 -1,1 -2,0 0,-1 -1,-1 1,-1 -1,-1 1,-1 -1,-2 -1,1 0,1 -1,2 -1,1 -1,-1 0,-1 1,-1 -1,-1 1,-1 2,-1 0,-1 1,-1 1,1 1,1 0,1 1,1 0,1 1,1 -1,1 1,1 1,-1 2,0 0,1 0,1 1,1 0,1 1,1 1,-1 2,1 1,-1 1,1 0,1 -1,1 0,1 1,1 0,1 1,1 1,-1 1,1 1,1 -1,1 1,1 -1,2 -1,-1 -1,-1 0,-1 0,-1 -2,0 -1,-1 -1,-1 0,-1 0,-2 -1,-1 -2,1 1,1 -1,1 1,1 -1,1 0,1 1,1 1,-1 1,1 -1,1 1,1 1,-1 1,1 1,1 1,1 0,1 1,1 1,-1 0,2 -1,1 0,1 -1,1 0,1 2,1 1,-1 0,-1 1,-1 0,-1 1,-1 0,-1 -1,-1 1,-1 -1,-1 0,-1 1,-2 0,-1 0,-1 -1,-1 0,-1 -1,-1 -2,0 0,-1 1,-1 0,-1 2,1 1,2 2,1 0,1 1,1 0,1 -1,1 0,1 -1,1 1,1 0,1 2,-1 1,1 1,1 1,1 1,1 -1,1 1,1 -1,1 0,1 -1,1 0,1 1,1 1,1 -1,1 0,1 -1,2 2,1 1,1 0,-3 1,-2 1,-2 -1,-1 -1,-1 1,-1 0,-1 1,-1 -1,-1 1,-1 -1,-1 -1,-1 -1,-1 -1,-1 -1,-1 -1,-1 -1,0 1,-2 0,-2 0,-1 -1,-1 0,-1 -1,-1 -1,1 -1,-1 -1,-1 -1,-1 0,-1 0,-2 -1,-1 -1,-1 0,-1 -1,-1 1,-1 2,0 0,2 1,1 2,0 -1,2 0,1 1,1 0,1 1,1 2,-1 -1,-1 1,-1 -1,-1 2,-1 0,-2 -2,1 0,-2 -2,0 -1,-1 -1,-2 0,-2 -2,0 0,2 -1,1 -1,-1 -1,-1 1,-1 -2,0 -1,-1 -1,-1 -1,-1 2,-1 -1,-1 1,-2 2,1 1,2 -1,1 1,1 2,0 2,0 -1,-2 -1,-2 1,-2 1,-2 -1,-2 -1,-1 -2,-1 1,-2 1,-2 -2,0 -1,-2 -1,-1 2,-1 -1,-1 0,-2 -2,-1 -1,-1 -1,-2 -1,-2 2,-1 -1,-1 0,-2 1,-1 0,-1 -1,-1 -1,-1 -1,-1 -1,-1 -2,-1 -2,0 -1,-1 -2,0 0,-2 2,-1 -2,-1 -1,-2 2,-1 -2,-1 1,-1 0,-1 -1,-1 0,-2 0,-1 1,-1 0,-1 -1,-1 0,-1 1,-1 -1,-1 1,-1 -1,-1 -1,-1 -1,-1 -1,-1 -1,-1 -1,-1 0,-1 1,-1 0,-1 -1,-1 0,-2 -1,-1 1,-1 0,-1 1,-1 -1,-1 1,-1 -1,-1 1,-2 1,1 1,1 1,1 -1,1 1,1 -1,1 0,1 -1,1 1,1 -1,1 1,1 1,1 0,1 -1,1 0,1 1,1 1,1 2,0 -1,1 1,1 1,1 1,1 -1,1 1,1 -1,1 0,1 1,1 0,1 -1,1 0,1 -1,1 1,1 0,2 1,1 1,1 -1,1 1,1 1,1 1,-2 1,-1 1,1 0,1 -1,1 0,1 -2,1 2,1 1,1 1,1 1,1 1,1 2,0 -1,1 1,1 1,1 0,1 -1,1 0,1 1,1 0,1 -2,2 2,1 0,1 2,1 1,1 1,1 0,1 0,2 -1,2 2,0 1,2 -1,1 -1,2 2,1 0,2 2,0 1,-2 0,-2 -1,-1 1,-2 -2,-1 0,-2 0,-1 -1,-1 0,-2 -1,-1 -1,-1 -1,-1 -1,-1 -1,-1 1,-1 0,-2 0,-1 1,-1 0,-1 -1,-1 -1,-1 1,-1 -1,-1 -1,-1 1,-2 1,1 1,1 1,1 1,1 -1,1 1,1 1,1 0,1 -1,1 0,1 -1,1 1,1 -1,1 1,1 1,1 1,1 1,1 1,-1 -1,-2 -1,-1 1,-1 -1,-1 1,-2 1,-1 0,-1 -1,-1 -1,-1 1,-1 -1,-1 -1,-1 -1,-1 -1,-1 -1,-1 -1,-1 -1,0 1,-2 0,-2 0,-1 -1,-1 -1,-1 -1,-2 0,-1 -1,-1 -1,-1 2,-1 0,-1 -2,0 0,-1 1,-1 -1,-1 0,-2 -1,-1 -1,-1 1,-1 2,1 2,-1 -1,-1 1,-2 1,-2 -1,-2 -1,-2 -2,-1 0,-2 3,1 0,-2 -2,-1 -2,-1 1,-2 3,1 2,1 1,1 2,0 1,-2 2,1 2,-1 0,-1 -2,-1 0,-1 -2,0 0,-2 -1,-2 -2,-1 -1,-1 1,-2 2,1 1,1 2,0 0,1 -1,1 1,1 1,1 1,1 1,1 1,1 1,1 0,1 -1,1 0,1 1,1 0,1 -1,2 -2,-2 -2,-1 0,2 0,2 2,1 1,2 -1,2 1,2 2,0 1,2 -2,1 -2,-1 -3,0 1,-2 -2,-1 0,-2 2,-1 -2,-1 -1,-2 0,-3 -2,1 -1,2 1,2 0,2 0,2 0,2 2,1 -2,1 1,2 0,1 1,1 1,1 1,1 1,-2 -1,-1 -1,-1 2,-1 2,1 0,2 2,1 0,-1 1,-2 2,2 2,1 0,-2 -1,-2 1,-2 0,-2 0,-2 -2,0 -2,-1 0,-3 2,1 2,-1 0,-1 -2,-1 0,-1 1,-1 0,-1 -1,-1 0,-1 1,-1 0,-1 -1,-1 -1,-1 -1,-1 -1,-1 -1,-1 -1,-1 1,-1 0,-1 -1,-1 -1,-1 1,-1 -1,-1 -1,-1 -1,2 0,1 -1,-2 -1,1 -2,-1 1,-1 -1,-1 1,-1 -1,-1 1,-1 0,-1 1,-1 0,-1 1,-1 -1,-1 1,-1 -1,-1 1,-1 1,-2 0,-1 0,-1 -2,0 0,-1 -2,-1 0,-2 -1,-1 -2,0 0,-2 0,-2 -1,-2 -1,-2 1,-2 0,-2 0,-2 -1,-2 -1,-2 -2,-1 -2,0 0,2 2,1 1,2 0,2 0,2 -1,2 1,2 1,2 -1,2 1,1 -2,2 2,1 0,2 3,-1 1,2 2,1 1,1 0,1 0,1 -2,1 0,1 1,1 -1,1 1,1 -1,2 -1,-1 -1,-2 0,-3 1,-2 -2,-1 -2,-1 0,2 0,2 0,2 0,2 1,1 1,2 2,1 -3,1 2,1 0,2 0,2 -1,2 1,2 0,2 2,0 1,1 1,1 -1,2 -2,-1 -1,-1 -2,0 -1,-2 0,-2 -2,-1 -2,0 -1,2 2,1 1,2 -1,2 -1,2 1,2 0,2 0,2 1,1 2,1 1,2 -1,2 -1,2 -2,-1 0,-1 1,-2 -2,-1 -1,2 -1,-1 0,-2 0,-2 1,-2 -1,-2 -1,-2 -1,2 0,2 0,1 -1,2 0,1 1,1 0,2 1,1 1,1 1,1 1,1 -1,1 1,1 1,1 1,1 -1,1 1,1 -1,1 0,1 1,1 0,1 -1,1 0,1 2,0 1,1 0,1 1,1 0,1 1,1 0,1 1,1 0,1 -1,1 0,1 -1,1 1,1 -1,1 0,1 -2,-2 -1,-1 1,-1 0,-1 1,-1 0,-1 -1,-1 0,-1 -1,-1 0,-1 -1,-1 -1,-1 0,2 -1,2 -1,-1 -1,-1 1,-1 -1,-1 1,-1 0,-1 1,-1 0,-1 -1,-1 0,-1 1,-1 -1,-1 1,-1 -1,-1 -1,-1 -1,-1 1,-1 -1,-1 -1,-1 -2,0 0,-1 1,-1 0,-1 -1,-1 -1,-1 1,-1 -1,-1 1,-1 0,-1 1,-1 -1,-1 1,-1 0,-1 1,-1 1,-2 2,1 1,-2 -2,-1 -2,-1 1,-1 -1,-1 -2,1 -1,-1 1,-1 -1,-1 -1,-1 -1,2 -1,1 1,1 1,1 0,1 2,0 1,1 0,1 -1,1 -1,2 -1,-2 0,-1 -2,0 0,-1 -1,-1 0,-1 -1,-1 0,-1 -1,-1 -1,-1 -1,2 0,1 1,1 0,1 1,1 0,1 -1,1 1,1 -2,1 1,1 -1,1 1,1 -1,1 0,1 0,2 1,1 0,1 0,2 0,1 0,2 1,1 1,1 1,1 1,1 1,1 -1,1 1,1 -1,1 0,1 1,1 0,1 -1,1 0,1 1,1 0,1 -1,1 1,1 -1,2 0,2 2,1 -2,2 1,2 1,2 1,2 2,-1 2,1 -1,2 -3,0 1,2 1,1 0,2 2,1 1,-2 0,-2 0,-2 2,-1 2,1 -1,2 0,2 -1,2 1,2 1,2 1,2 0,2 2,0 -1,2 -1,2 1,1 2,0 1,2 0,2 -2,0 -1,-2 -1,2 -2,0 -2,1 1,1 1,1 1,1 1,-2 2,1 2,-1 2,1 1,1 0,2 -2,0 -2,-1 -2,0 0,2 -1,2 -1,1 -1,1 1,1 1,1 1,1 1,1 1,1 1,1 0,1 0,1 -1,1 -1,1 1,1 2,-1 0,1 1,1 1,1 0,1 -1,1 -1,-1 -1,-1 -2,-1 0,1 0,1 -2,-1 -1,-1 1,-1 -1,-1 -1,-1 0,-1 -2,1 -1,-1 1,-1 0,-1 -2,0 0,-1 -1,-1 -1,-1 -1,-1 1,-2 1,1 1,1 1,1 1,1 1,1 1,1 1,1 1,1 1,1 1,-2 -1,-1 -1,-1 -1,-1 -1,-1 -1,-1 -1,-1 -1,-1 1,-1 1,-2 1,1 1,-2 0,-1 -2,0 0,-1 -1,-1 -1,-1 -1,-1 -1,-1 1,-1 0,-1 -1,-1 0,-1 2,0 1,2 2,-1 -1,-1 0,-2 1,-2 -1,-2 0,-2 -1,-2 -1,-2 -1,2 0,2 1,2 0,2 0,2 -2,0 -1,-1 0,-1 0,-2 -1,-2 -1,2 -1,2 0,1 1,1 1,1 -1,1 1,1 -1,1 1,1 -1,1 1,1 1,1 0,2 1,-1 1,1 0,1 1,1 0,1 -1,1 0,1 -2,-1 0,-1 0,-1 -2,1 -1,-1 1,-1 -1,-1 1,-1 -1,-1 -1,1 -2,0 1,2 0,1 -2,-1 -1,1 1,1 1,1 0,1 1,1 1,-1 0,-1 2,1 0,1 0,1 -1,1 -2,-1 -1,1 1,1 1,1 -1,1 -1,1 -1,-1 0,-1 -1,-2 0,-1 0,-2 -1,-1 -1,1 -1,1 1,1 -1,1 1,1 1,1 0,1 1,2 -1,1 1,1 0,1 0,2 1,1 -1,1 1,1 -1,1 1,2 1,-1 1,-1 0,-2 1,-1 1,1 0,2 0,1 -1,1 0,1 1,1 -1,1 -2,0 0,-1 -1,-1 -1,1 -1,-2 -1,-1 -1,-1 1,-1 -1,-1 1,-1 -1,-1 1,-1 0,-1 -1,-1 -1,-1 2,-1 0,-1 -1,-1 -1,-1 -1,-2 -1,-1 0,-1 1,-1 -1,-1 -1,-2 -1,-1 2,-1 0,-1 1,-2 1,1 1,1 -1,1 0,1 -1,1 1,1 1,1 1,-2 0,-1 2,-1 -1,-1 0,-1 -1,-1 -1,-1 0,-1 0,-1 2,1 2,0 -1,1 1,1 1,1 1,-1 1,-1 -1,-1 1,-1 -1,-1 1,-1 -1,-1 0,-1 -1,-1 -1,-2 2,0 1,-2 0,-2 -2,1 -1,-2 -1,2 -1,2 -1,2 2,1 -1,1 1,1 1,1 0,1 -2,0 -1,-1 -1,-1 0,-1 -2,-1 1,-2 0,-1 0,-2 2,-1 1,-2 -1,-2 -2,-1 0,3 -2,-1 0,2 0,2 -1,2 -2,-1 0,-2 0,-2 1,-2 -1,-2 -1,-2 0,-2 -1,-2 0,-2 0,-2 0,-2 0,-2 -1,-1 -1,-1 0,-2 1,-1 1,1 1,1 0,1 2,1 0,2 0,2 2,1 -2,1 0,2 1,1 0,2 0,2 1,2 2,-2 0,-2 0,-2 0,-2 1,-2 -1,-2 -1,-2 -1,-2 -1,-1 -1,-1 -1,-1 -1,-1 -2,-1 1,-1 0,-1 2,1 1,1 1,1 1,1 1,1 2,2 1,2 1,2 0,3 0,2 0,2 0,2 -1,2 2,0 1,1 0,2 2,1 2,1 2,1 1,-2 -2,-1 -2,-1 0,-2 0,-2 -2,-1 1,-2 -1,-1 0,-2 -1,-2 0,-3 -1,-2 0,-2 -2,-1 -2,-1 -1,-1 -1,-1 -1,-1 -2,-1 -1,-1 -1,-1 0,-1 -1,-1 -1,-1 2,-1 -1,-1 1,-1 -1,-1 -1,-1 -1,2 0,1 -2,1 1,1 0,1 1,1 0,1 1,1 1,1 -2,1 0,1 -1,1 1,1 -1,1 0,2 0,1 0,2 1,2 0,2 0,2 -2,1 1,2 2,1 -2,1 2,1 1,2 1,2 -1,2 0,2 0,2 0,2 2,0 2,1 1,2 1,1 1,1 0,1 -1,1 1,1 -2,1 0,1 -1,1 0,1 -1,1 -2,-1 1,-2 -1,-1 2,-1 1,-2 -1,-1 -1,-2 -2,-1 0,3 0,2 -1,2 -2,-1 0,-2 1,-2 -1,-2 0,-2 -1,-1 0,-2 2,0 -1,-2 -1,-2 2,-1 -1,-2 -2,0 -1,2 0,3 -1,2 0,2 -1,2 0,2 2,-1 0,3 -2,2 2,1 1,2 2,1 1,1 0,2 -2,0 -2,0 0,-2 -2,0 0,-2 -2,-1 0,-2 1,-2 -2,-1 -1,2 -1,2 0,2 2,1 1,1 -2,1 -3,-1 0,-2 -1,-2 1,-2 -1,-1 2,-1 -2,-1 -1,-2 2,0 2,0 2,1 1,-2 0,-2 1,-2 1,-2 -1,-1 0,-2 -2,-1 -1,2 0,2 0,2 0,2 -2,0 -1,-2 -1,-1 2,-1 -2,-1 1,-1 0,-1 1,-1 -1,-1 2,-1 -2,-1 -1,-1 0,-1 -1,-1 -1,-1 -1,-1 0,-1 -1,-1 0,-1 1,-1 -1,-1 -1,-1 0,-1 -2,0 -1,-1 2,-1 -1,-1 0,-1 0,-2 0,-2 2,2 0,1 1,1 1,1 -1,1 1,1 1,1 0,1 1,1 0,2 0,1 1,1 0,1 2,0 1,1 -2,1 2,1 0,1 3,1 1,1 2,1 1,-2 0,-2 -2,-1 -2,1 -1,-2 2,-1 -1,-2 1,-3 0,1 2,1 1,3 1,-2 0,-2 -1,-2 -1,-1 -2,0 -1,-1 -1,-1 0,-2 -1,-1 0,-1 1,-1 0,-1 1,-1 0,-1 1,-1 -1,-1 -1,-1 -1,-1 1,-1 0,-1 -1,-1 0,-1 1,-1 -2,0 -1,-1 0,-2 2,1 2,0 1,1 1,1 -1,1 0,1 0,2 1,1 0,1 1,1 0,2 0,1 -1,1 0,1 -1,1 1,1 -1,1 0,1 1,1 2,0 1,-1 -1,-1 1,-1 -1,-1 1,-1 0,-1 1,-1 0,-1 -1,-1 0,-1 -1,-1 0,-2 0,-1 -1,-1 1,-1 2,1 0,-1 1,-1 -1,-1 -1,-1 -1,1 -1,-1 -1,-1 0,-1 -2,0 0,-1 -2,-1 1,-2 3,-1 0,2 0,1 2,0 1,1 0,1 2,0 1,1 0,1 2,0 1,1 1,1 1,1 1,1 -1,1 1,1 -2,1 1,1 1,1 0,1 1,1 1,1 2,1 1,-1 1,1 0,1 1,1 1,1 1,-2 0,-1 -1,-1 0,-1 1,-1 0,-1 -1,-1 0,-1 1,-1 -1,-1 1,-1 -1,-1 -1,-1 -1,-1 -1,-1 -1,-1 1,-1 -1,-1 1,-1 0,-1 -1,-1 -1,-1 1,-1 0,-1 -1,-1 0,-1 1,-1 -1,-1 1,-1 -1,-1 1,-1 0,-1 1,-1 0,-1 -1,-1 0,-1 -1,-1 0,-1 1,-1 0,-1 1,-1 0,-1 1,-1 -1,-1 1,-2 1,1 1,1 1,1 -1,1 0,1 2,1 1,-1 0,-1 1,-1 -1,-1 -1,-1 -1,-1 -1,-1 0,-1 1,-1 -1,-1 -1,-1 -1,-1 1,-1 0,-1 -1,-1 1,-2 -1,1 -1,-1 0,-1 -1,-1 -2,1 1,1 -1,1 1,1 1,1 0,1 -1,1 1,1 1,1 1,1 -1,1 0,1 -2,1 0,1 -1,1 1,1 -1,1 0,1 -1,1 0,1 -1,1 -2,-1 0,-1 1,-1 0,-1 1,-1 -1,-1 1,-1 -1,-1 -1,-1 -1,-1 -1,-1 0,-1 -1,-1 -1,-1 1,-1 0,-1 -1,-1 0,-1 -1,-1 1,-1 -1,-1 -1,-1 -2,-1 -1,1 1,1 1,1 0,1 -1,1 1,1 1,1 0,1 -1,1 1,1 1,1 0,1 1,1 1,1 1,1 1,1 -1,1 1,1 -1,1 0,1 -2,1 1,1 1,1 0,1 -1,1 -1,2 -1,-1 -1,-1 1,-1 0,-1 -1,-1 -2,2 0,-2 0,-1 -1,-1 -2,1 0,3 1,2 2,1 -1,2 1,2 2,-2 2,0 0,1 1,1 2,1 1,1 -1,-2 1,-1 -1,-1 -1,-1 0,-1 1,-1 1,-2 1,1 2,0 0,1 1,1 0,1 -3,-1 0,1 1,1 1,1 -1,1 1,1 -1,1 1,1 -2,1 1,1 1,1 0,1 0,2 1,1 0,1 -1,1 1,1 -1,1 1,1 1,1 1,1 1,1 1,1 -1,1 1,1 -1,1 0,1 1,1 0,1 -2,1 -1,-1 0,-1 -1,-1 0,-1 1,-1 -1,-1 1,-1 -1,-1 -1,-1 -1,-1 -1,-1 -1,-1 1,-1 -1,-1 1,-1 -1,-1 1,-1 0,-1 -1,-1 0,-1 -1,-1 0,-1 -1,-1 -1,-1 -2,0 -1,-1 -2,2 2,1 2,0 0,1 1,1 0,1 1,1 0,1 -1,1 1,1 0,2 -1,-1 -2,-1 0,-2 -1,1 -1,-1 0,-1 1,-1 0,-1 -2,0 -2,-1 -2,1 0,-2 -1,-2 2,-1 -1,-2 0,-2 -1,-2 -1,-1 0,-2 0,-2 -2,-1 -1,-1 0,-2 -2,-1 1,-3 2,0 0,1 2,1 0,2 1,1 2,1 1,-2 -1,-1 0,-1 -1,-1 -1,-1 -1,-1 0,-1 -2,0 -1,-1 2,-1 -1,-1 2,-1 -1,-1 1,-2 1,1 1,2 0,1 -1,1 1,1 1,1 0,1 1,1 1,1 1,1 1,1 -1,1 0,1 1,1 2,1 0,-1 1,-1 -1,-1 1,-1 -1,-1 -1,-1 -1,-1 -1,-1 0,-1 -1,-1 -1,-1 1,-1 0,-1 -1,-1 -1,-1 1,-1 0,-1 -2,0 -1,-1 2,-1 -1,-1 1,-1 2,0 1,-1 -1,-1 -1,-1 1,-2 1,1 1,1 1,1 1,1 -1,1 1,1 2,1 1,-1 -1,-1 1,-1 -1,-1 -1,-1 -1,-1 -1,-1 0,-1 -1,-1 0,-1 1,-2 1,2 1,1 1,1 0,1 1,1 1,1 1,1 1,1 -1,1 1,1 -2,1 0,1 -1,1 1,1 -1,1 1,1 1,1 0,1 -1,1 1,1 1,1 0,1 1,1 2,1 0,-1 1,-1 -1,-1 -1,-1 -1,-1 1,-1 0,-1 -1,-1 -1,-1 1,-1 0,-1 -1,-1 1,-1 2,0 1,-1 0,-1 -2,0 1,-1 -1,-1 -1,-1 -1,-1 -1,-1 0,-1 -1,-1 -1,-1 -1,-1 -1,-1 1,-1 -1,-1 1,-1 1,-1 1,2 1,1 -1,1 1,1 1,1 1,1 2,0 -1,1 0,1 1,1 1,1 1,1 1,1 1,1 -1,1 1,1 2,0 0,1 1,1 2,0 0,1 -2,1 0,1 0,2 0,2 2,0 1,-1 -1,-1 1,-1 -1,-1 2,-1 1,2 0,2 0,1 -2,1 0,1 -1,1 0,1 1,2 2,1 0,1 1,2 2,1 2,1 1,-2 -2,0 -1,-1 -1,-1 2,-1 2,0 2,1 2,1 2,1 0,-2 0,-2 -2,0 -1,-1 0,-2 2,-1 -2,-1 -2,0 -1,3 -2,0 -1,-1 -1,2 0,1 -2,-1 -1,-1 2,-1 -1,-1 2,-1 2,-1 -1,-1 0,-2 -1,-2 1,-2 -3,0 0,-2 1,-2 0,-2 1,-2 0,-2 1,-2 -1,-2 -2,-1 2,-2 -1,-1 -1,-2 0,-2 -1,-2 0,-2 -3,0 0,2 1,2 1,2 0,2 0,2 -1,2 1,1 2,1 -1,2 0,2 -1,2 0,2 -1,2 -2,-1 -1,-1 1,-1 1,-2 0,-2 0,-2 -2,0 -1,1 0,1 1,2 -1,1 -1,-1 -1,-1 -1,-1 0,-1 1,-1 -1,-1 -1,-1 0,-1 -2,1 -1,-1 1,-1 -1,-1 -1,-1 -1,-1 1,-1 -1,-1 2,0 0,-2 2,0 0,2 0,1 -1,1 1,1 1,1 1,-2 1,-2 1,1 0,2 -1,1 1,1 -1,1 1,1 1,1 1,-2 1,-2 0,-2 0,-2 0,-2 -2,-1 -2,1 -1,-2 1,-2 2,1 1,-2 1,-2 2,0 2,1 2,-1 0,-2 -2,0 -1,-1 2,-3 2,2 1,-2 2,1 -1,2 0,2 -1,2 -1,2 0,2 1,2 0,2 2,0 0,2 -1,2 1,2 1,2 -1,2 0,2 -1,2 0,2 -1,2 2,0 1,2 -1,2 1,2 1,2 2,-1 0,-2 -1,-1 1,-2 0,-2 0,-2 -2,0 0,-2 1,-2 0,-2 1,-2 -1,-2 -1,-2 1,-2 0,-2 0,-2 -2,-1 -1,-1 0,-2 1,-2 1,-2 0,-2 2,0 1,2 2,1 0,-2 0,-2 -2,-2 -2,1 -1,-2 -2,-1 0,-2 3,1 0,-2 1,-2 2,2 0,2 1,1 1,2 2,1 0,2 0,2 -1,2 1,2 2,-2 1,3 -2,1 1,2 0,2 2,-1 2,1 2,-1 -1,-2 -1,-1 1,-2 -2,-1 -1,-2 -1,-2 0,-2 1,-2 2,1 1,-1 -1,-1 1,-1 -1,-1 -1,-1 0,-1 -1,-1 0,-1 -1,-1 -1,-1 -1,-1 -1,2 1,1 0,1 1,1 0,1 1,1 1,1 -2,1 -2,-1 -1,-2 -1,-2 0,-2 -1,-1 2,-1 0,-1 1,-1 2,0 1,-2 1,1 1,1 -2,1 1,1 1,1 1,1 1,1 0,1 1,1 0,1 1,1 1,1 -1,1 1,1 -1,1 1,1 0,2 -1,-1 -2,-1 -1,2 1,2 2,0 1,2 0,2 0,2 2,1 1,1 3,-1 2,1 2,1 1,1 1,-2 -1,-2 -1,-1 0,-2 -1,-1 0,-1 -1,-1 -1,-1 1,-1 -1,-1 -1,-1 -1,-1 0,2 0,2 0,1 1,1 0,1 1,2 -2,1 -2,-1 0,-2 0,-2 -1,-1 1,-1 -1,-1 1,-1 -1,-1 1,-1 -1,-1 1,-1 -1,-1 -1,-1 0,-1 -1,-1 0,-1 -1,-1 -1,-1 -1,-1 -1,-1 1,-1 -1,-2 0,-1 2,-1 0,2 1,1 1,1 -1,1 1,1 1,1 1,1 1,-2 -1,-1 1,-1 -1,-1 -1,-1 -1,-1 1,-1 0,-1 2,1 1,1 0,1 1,1 1,-2 -1,-2 2,0 1,2 0,1 -1,1 1,1 -1,1 1,1 1,1 2,-1 -1,-1 0,-1 0,-2 0,-2 -1,-2 Z"/>
</svg>
